<mxfile host="app.diagrams.net" modified="2022-11-02T01:17:42.459Z" agent="5.0 (Windows NT 10.0; Win64; x64) AppleWebKit/537.36 (KHTML, like Gecko) Chrome/106.0.0.0 Safari/537.36" etag="Ov8D1LRVLs6UO1GqX89o" version="20.4.0" type="github">
  <diagram id="8tUrQ_qnu4sv7Uo-mtpm" name="Page-1">
    <mxGraphModel dx="1381" dy="486" grid="0" gridSize="8" guides="1" tooltips="1" connect="1" arrows="1" fold="1" page="0" pageScale="1" pageWidth="850" pageHeight="1100" math="0" shadow="0">
      <root>
        <mxCell id="0" />
        <mxCell id="1" parent="0" />
        <mxCell id="MW2AbabD50GN0dSTxqUb-10" value="" style="shape=image;verticalLabelPosition=bottom;labelBackgroundColor=default;verticalAlign=top;imageAspect=0;image=data:image/jpeg,/9j/4AAQSkZJRgABAQEASABIAAD/2wBDAAMCAgMCAgMDAwMEAwMEBQgFBQQEBQoHBwYIDAoMDAsKCwsNDhIQDQ4RDgsLEBYQERMUFRUVDA8XGBYUGBIUFRT/2wBDAQMEBAUEBQkFBQkUDQsNFBQUFBQUFBQUFBQUFBQUFBQUFBQUFBQUFBQUFBQUFBQUFBQUFBQUFBQUFBQUFBQUFBT/wAARCADVANcDASIAAhEBAxEB/8QAHwAAAQUBAQEBAQEAAAAAAAAAAAECAwQFBgcICQoL/8QAtRAAAgEDAwIEAwUFBAQAAAF9AQIDAAQRBRIhMUEGE1FhByJxFDKBkaEII0KxwRVS0fAkM2JyggkKFhcYGRolJicoKSo0NTY3ODk6Q0RFRkdISUpTVFVWV1hZWmNkZWZnaGlqc3R1dnd4eXqDhIWGh4iJipKTlJWWl5iZmqKjpKWmp6ipqrKztLW2t7i5usLDxMXGx8jJytLT1NXW19jZ2uHi4+Tl5ufo6erx8vP09fb3+Pn6/8QAHwEAAwEBAQEBAQEBAQAAAAAAAAECAwQFBgcICQoL/8QAtREAAgECBAQDBAcFBAQAAQJ3AAECAxEEBSExBhJBUQdhcRMiMoEIFEKRobHBCSMzUvAVYnLRChYkNOEl8RcYGRomJygpKjU2Nzg5OkNERUZHSElKU1RVVldYWVpjZGVmZ2hpanN0dXZ3eHl6goOEhYaHiImKkpOUlZaXmJmaoqOkpaanqKmqsrO0tba3uLm6wsPExcbHyMnK0tPU1dbX2Nna4uPk5ebn6Onq8vP09fb3+Pn6/9oADAMBAAIRAxEAPwDyjR/B+gPo+nsdE0/LW0RP+jJ/cHtVv/hDfD466Jp//gKn+FWdHkVNH07P/PrF/wCgCtW0s5LqToGRhkAmvrGoRV2fzvOvUjeUpu3qYf8Awhfh9VJbQ9PXvzap/hRF4G0CaMT/ANh2BT+8LVNv8ql1rVk+3W8EDsm8BCu3AJLYr1DS/CP2f4U3WqT20ZaIyEyh8kYkA6fjXBj8VRy6nSnW09pJRXqzp9ni3TU03dpu2uy3PJ/+ET8PySMn9h6bhPS1TP8AKk/4QnQYTzodgO/zWqf4VlaD4nTUfFPiOzSeRhZvjYyYCckcV7r8Xvh/J4VhtZY7SG1RtMa6by5M5wCS314p4zGYbA4qhhKrSlVvbb7KTf5nbiMHjcM3e9koX3050mvzPIm8H+H5F3jQ9N2+q2qY/lQPBWgLz/Yen4PTNqn+FWvhDeL46vI7OEtdkxSS7ZRsHykc5/Guh+I2kTeFIbIui26yyOq+W27OAD/Wtp1qNPGLANrnetvLX59DCthcbh8T9VlzXv5/10OUXwXoE6ll0PTiF4O21T/Cmjwd4fHH9iadn/r1T/Cug8DtHqmn3ZYeYwl2gsMdVqprsb6XrUkTfu0VF+VTnqK3jyOvLD21X/A/zOW9dV54dyd4+b8jLPgvQBz/AGHp4/7dU/wo/wCEM8Pt00TT/wDwFT/CuiEa3FjbPGPmK5YnjNU7JuGVzkluKcVGSbtsc6r1Wm+Z3XmzJ/4Q3w/nH9iaf/4Cp/hR/wAIX4f/AOgJp/8A4DJ/hWxKCJyRwuKdJ/q0x171XLHTQftqunvvXzMX/hDPD/8A0BNP/wDAZP8ACj/hDfD/AP0BNP8A/AVP8K2IeVOeuaH+WQ0csb2sP21W9uZ/eZH/AAhnh/8A6Amn/wDgKn+FH/CGeH/+gJp//gKn+FbDdsUgNHLHsL29X+Z/ezI/4Qzw/wD9ATT/APwFT/Cj/hDPD/8A0BNP/wDAVP8ACtig9qOWPYPbVf5n97Mf/hDPD/8A0BNP/wDAVP8ACj/hDPD/AP0BNP8A/AVP8K2KQZo5Y9g9vV/mf3syP+EM8P8A/QE0/wD8BU/wo/4Qzw//ANATT/8AwFT/AArYNFHLHsHtqv8AM/vZj/8ACGeH/wDoCaf/AOAqf4Uf8IZ4f/6Amn/+Aqf4VsUnNHLHsHtqv8z+9mOfBugf9ATT/wDwFT/CitlqKajHsNVqr+0/vZS8PwD+x9MkY/8ALtFwen3BV6+1No7fy41XKsBlTz+lZ2mSM2i6eo6fZYf/AEBauWtiJZMsh5GetPljpKfQlxjf2lXp0JfCvh9JriO4lZ8pcI3zoCOoPftXX/FDxnJB4f1fSIEhEDxL80chHVgTgDis1bxbC3dFcJlScEZ7VwHiK9a8mmG4PuVRwMV5iwazLGQxFdXUNUvO6d/wOzL6tbGYpSbsk0/ldafMxPhroaw654hvC0jNdqrEMvA5PQ96+wPizqY8QaPGGSMbNIeH92d38B/WvmzwfZmOOUhSN0a9/c17hcSGfTJQ3J8grxx/DXzPFuHhXzHC4nrScrf9vKKf5HrZhm1SeJxEE9Jez/8AJFofNPgtH8H+JPMgZ8LbsnzZQc49PpXrmr6wPFmi6TFOsSm3XduVt5JIA5z9K4DxTY+ReOwQjhRyc9qZo+qNbqyF1UKoGNtfd4rC08dKnjEvfjs/lb9ScfOrmdOONg/faSf9fMv6bavo8jLEZGVpd/PHf2rT1eQapmRwquSOnPSrMOy7TOdx6ccVDdWZhzhCPxrn9op1FKWkkfMTxLq1eeekinasbbKglgBgZp0uGww4+lRu2xiG4NIsgPeui13zGvK2+ckjPrzTmG7mkT5ql28VDeplJ6kK8Ujc0r5FMB9apdy0upLTWpRRip6khRSHjpSZNOwxc5paAKKTEI1ANIxpFyTVdCrdR/WnYwKcqjANMkP8qjfQzvzOxEzfNRTCfmorax1JWRNoNmraNpp/6douo/2BWiyi3XgdOPSp9LjFv4f0/ti0hPP+4tYurX20OAy4D15tGUsQ9NjzqcZ4ipylLVNVfdj5vun+KueVjcXCk9/XntVS+vA0o+Zf8mr2j/vJIs92NfTRpqjDQ/Q6eDWBw7mux3vhGxBgbp/q17fWvV5Iwti4wP8AVHt/s1wvgm2Bt5OG/wBUv8zXqN1bs1qw2tjyiOntX45xFi/9rjF9/wDI+JpxdadSp/XU8E8ZW485+n8Hb2riJJDDNIBxz2r03xpZ+XM4AY/c/lXm+qRbZ2yCPmNfqOV1FUw8fQ+gySopQ9lL+tjp9Ev38vByfnH8X0rqtq3EWSBnP1rzXTbny8DKj5h1rtNM1DcgBZO9c2Ow7T54niZpg3Rqc8SPUrULJxj7x7Vk5KN1rppcTKDnPfisi6tec4bpU4erpyyOXC19OSRHbSZFXVwyjjtWekZjboR9atQyECtKkeqHWim7xCaPH5VXb5atsdw5qCRaIvoFOXRiK1PzUNPVqpouUeo4802nUUkyQoNNoAosAmM1Iq8ihVqQDbSciZS6C1WkNTO3aqrtTgiqcdbjf4qKRetFanSzYF5jQbLAb/jyg/8ARa1xOtag26QAt/rPatd7w/2HadP+POD+L/YWuI1i8IMh4+//AHqvLcOowR7uQYH2s+Zrr/kUWuC8oznr/Wur0BdzQN/tH+tcPb5aRTyfmH8673w796Af7Zr2cTpA+zz2KpYay8/yPZPAkStbPx/yyX+Zr1n7EWtG5GNn9K8y8A2/+iu3PMK9vc17JbRCS1I/2cdPav5d4vxTpYy6fX/I+Cyagq0Z3/rVnh/jrTUDOwCjlB39K8l160CXDdD85r6J8d6UqI7fN95Oqj0rxHxRZj7Y4Gf9Y3QV+r8K5gsRh4a9P0Rw4dyweNcHpucIspibg981u6Vqjcfe6H0rnr0eXJ6dTUNnesGwPQ96/SZ01UiffV8HHFUb2PTLG+LxjIb7o9Kv+SJlJxXFaXqR8vnH3R/FXX6dceZjOMZ9favm8TRdJto/NMfhJYabsJJZj2qvJb+X3FdFDAsw/wDrVFc2A5+9/wB8150cWk+VnmRrSW5z3PrTGatC4ttg4B6elZ8y7fWvSpyU9Ud1OSkR0m6ombFN82urlO9U2yyGp26qqyVMjZqXGxnKFiVRUipSxrnFTolc8pHFKVhnl4prfLU5T8agm71EXciL5mV3bOars1SyHr9ark12RR6VOOg9e1FIjc0UymtTnDdf8Se0wwK/ZIecf7C1xWtXHmNKMg/vPStn7U/9j2nLY+yw9/8AYWuavGMskn+9mvcw8OWKP1zIcGqMeZ/1sW9J3MP+BivRPD0K7oDjnee/1rhdKhBxg4+cdq9H8OwjMHT757fWscZK0GeRxNWSptLz/I9s+Hq7rM56eSmPzNeyaba7YTtU9u/tXkXgGPbZHn/lin9a9o09g1scDbwB+lfx3x1WlHEy5e/+R43DFOM4vm/rc43x5a+dbsCpI3p39jXg3iyzWO+fCkfvWzzX0b4phHkHcA3zL1HtXhPji3UagxAABmbt9K+34Bxb9nGn0t+iPCz6n7LFe0X9bniGuxlZun8LfzNc6sxhPBx+FdlrkK+YcgH5G/rXDX+Y5Dg4HFf0rQlzRP0jJZqvRUWbmm33ykF16DtXfaHfbsAODyO3tXk1jcMu7k9PWu40G8YMvX73r7VzYuipxZ5HEGXpwcl/Wx6nosytjJ5wa6GO1E0IIUkY7GuH8P3ZyCcnhu9d9pUnnQxjGPlFfmOaQlRnzI/JfZ8s3BmJqeliOMkRt93+971zWoWpUn5TjI716ZeWqPEwIU8elcprVgqsSMAfL2p5bmHO1GQSi6Mro4G4UqPxqmz+pravrcbeMdT2rFmj2478V95RkpI+kwtSNRDo5uetXYXyetZIY7quQSENWk46G9elpobcP8NW0Ws23lPy/Wr8cnSvJqxaPma0XFkjLxVSZTzVxjmq8w61FMzpvUzpe/1qu1XJV/nVVlr0YM9mk9BFoooqmaS3PLI5D/ZdmO32aL/0AVU2BnOTU9qwk0uzHc20X/oAqSG1G/JweK+ijpFH7hQkqVPU19Jt9uOD94f0r0Xw/F88AwfvH+tcbpVuHx0GGFd7oaCOSBT13GvEzCfuM/LOIsR7TT+tj2LwPEsVnuzy0K5z+Nes2MxaHkAdP5V5T4QjK2KknIMS4/WvSLK9EkeFVh0H6V/I3F1N1sRJrXX/ACOjh6oqUNdP6ZB4ix5Rwc/MteLeOV33p/66t/SvX/EEphjO87huXpXk/i2P7Tdkr8v71jzX0nBMfZSjJ7WPJ4inzTZ4zrcH7w8H7rfzNcBrER3EAE9P5V6brUYWQg8/K38zXCata4yeO38q/p/BzvFH0vDuJ5UrnNQoY2fiuq0W4O5eR1/pXPSKBIwHUHmtPS5DGwHv/SvQmro+0zCKrUWei6DdbQvK9GrvtAvsogLL0UfrXlWj3J469DXZaJfFdg+bOF9PWvjc0wvtIs/Ec0wzpVXNHqEc25SAQRms3VrfzcnBJyOlVrG/bkHcefatH/j4XP8AOvzdU5YapzHl8yqRscNqFn8n3W71zl7a8Dhvu16DqFqrLjA71zWoaeFXPy/d9/WvucDi00kyaFZ0ZHIPCQTwabHlTWpcWo3MOOtUpIttfSxmpI+np11URNBL93pV+KfpyOlZCsVqeOf65rOdPmOWtR5tTbWbPcUjtuB5rPS4PvUqzZ9a4/Z2PLdBxY91quy1NupGXNaR0NYPlK+zvzRU+yiq5jXnPItLXbpdiOG/0ePn/gIrRgtQ2GyRkdMVV0lA2l2AHX7PH/6AK27O1OVJxgr619G5WifsGIr+zje5saTGNuMfxDtXb6LbhZIGzk7j2+tcrp8e7GP7wFdjpKeS0Rbsx6V8xmE/ddj8lzarzSPUvDd0fsUaBQNsajPrXZWMhhjJznkHrXAeHbgG34z9xe1dnDIVjyenWv53zyherJW3Z3ZbVtFMdr1611CVKhfmByDXm/iL5LjOc5dq7XU75JAVTO7IPIrhfEBbz8n++a9nhzD+xailY8/NavtW5N3PN9ZjDyH/AHT/AFrjNShC5HXp1Fd3qahnOP7prkdVhK5LdOK/fMFLRI9TJa3K1E5C8tQ8rclfmPQVLa/uSAPm571Zuod7nZ685NRRxeSwMnrnivcvdH6cq3PSUWzY0uQ7h24Peus0u6Kqo9h3964yzkHG3pg10WmTbVXPoK83Ew5kfDZvQ5k3Y73R7phMCTn5+59q6WG8LoFCgfQ1wWm3JMgwf4vT2rptPvAsYBznntXwWYYVc3NY/OpJ05WN4wKykk549KxNUtQy/wDAfT3rUimaQ47UXcIMbH2rxKM5UaiuwlZrQ4q6tQN319KxriAeh6+ldfdW+7d9fWsa7tsL+fevssLiLm2HrODsznZE25qHca0JocZzVKVdufrXuRldH0dKopIVZSKmSY5FUt3Wl8zbVuNzaVFSNNZM4qVWrNjmP6VajkrnlCx59SjYuUUxG6UVzNWOBp3PNNDtw2l6ef8Ap3j7f7AroLRACox0Ws3QocaRp/H/AC7x/wDoArdtoeRx2r3Zy0P0TGYi9zUsYduMH+IGuu0/GxcjJya5yxXav4iug0/EbR57E18zjnzI/N8dNzlqdroTFYTjpsFdV9sfy8AsOMda4zT5y0Q6Y2itW3uNqmvyrMML7ao5M0w1b2cbIu3ExjXJ+Y5rltck86RcfL85rW1C7zHt46jtXO6hJuYf71ejltDlkpM5sRU5tDkr5cOc88GuZ1aPcD9RXVX3zN+BFc9ex9R9K/UsJLZnq5bPlkmcxNEFkPfmqrx72BrXu7cM+R1yc1TkjwwFe9GWh+iUMReK7kdriPtnrWzYsflOccCsuOM7sVo2nYemKyqao4sa1JM6XTpsN/wKt2xmbdjJ6HvXL2blZB9a2rObIx35r53FU+a5+d4ylaTaOyt59p6dQKsSEuhyeKwrW52t27VorN5hFfG1aDjK6PMUhJlRuNoznrWFeQYUc9zW87A5FZc65zmu3CycWTfU566iXa/AzisuaPGee9b91H976VlzRdfrX1VGpoezhatjIkXHTiojx15q5NHVZlOa9KLufRU5JoVG6VYikP61TxiplaiSFUimaUcnSiq0TcCiuVx1PLlT1Oc0GP8A4lOnAj5vs8Y/8cFbcMZXBzxis3QYh/Y+nH/p2i/9AFbcKdM+ldU5aHsYqrqaVqvy5HHNbun4wjMM8nNYlqg29e9a1tLs2pjvXgYq8lZHxmI1Z0Gn3By4BIUAYFazTFMbeKwLf92gcHO8dPSra6gZB90DHHWvka9DnldLQwjKyLV1cf3gSKx75yzDacc1Ynm96zriQluveuvC0eVoiUuYyLjBzkZODWHdrySeRxW5cYU9e1ZN0m6vr8O7Hr4OXKzFuYgzZHHNUZIe55PatiRMN0qlLb5ycmvXhI+vw9aytcpRp+8/Crtum3ke1MSLb71YjU8cVcpGtapzIu2rfNz61q2shGCOOtZVv8vUd6v27Y57V5tZXPl8VHmub0E/1rStpjgknIBrCjk5FX4bj+frXz9ajc+dlGxotcbmOOKhk5U1F5wPcZ+tI8hxya5Y0+V6GZQuPvN9Kz54+v1rRmYNmqkw6/WvYpM7KUrMyZo+KpunWtKRKqSJ14r1oSPoKNQplQOTTlFSMtN21vc7+a6JFbFFIooqGYOxQ0NMaPpwHT7NF/6AK2Yl4H0rM0Ff+JNp3H/LtF/6AK1YxzWcnoZ4id2X4Ttxj1q9G22RTVCP+tXoWHGRk15dU+dq7mykw+zxY9KWFjye2aorISoGeOwqbzfQ4rxpU7aHEWLmcbcr+oqizlmOelSO+3r096qzNu+6cfStaULaDRUuMM34VnzJurQkqnMvNexSdj0aMrGbKiqxz61WkjbIA+7WjLGC3Sq7R9eMmvSjI92lVsin5YHWnxRndx0qRo/WnBTxjitOY6XUuh/CsAOpq1b5CgnpVaNecnk9qsRntXPPsefV1Vi9HIM8VbikxWdG22rMcmD1rgqQuePUgXlkHWnNMZBVTzKd5nHXFcvszl5B7MpB9arSZ59KeX5qORt1bQjY1grMqyAbeKqup5zVtqgZa7oM9Ok7FVo/So9uKtMtRbPWuhSPQjMjUUVJtx2op3ByKeg5/sfTv+vaL/0AVprjpWfov/IF09u/2aL/ANAFaUS5PvWUtjKs9Wy0rnIGKtrt3DB5qlD83X14qwGKuPSuOa6HkVF0Lscp5qw+1SCDz1qmpG0bRg96dHKzfeOea4JQu7o4XEm8wzNtfhevFRyARng5FBba3vTTls5oivuBEMhLNzVab5WI71amxuGOKhlj+XLcn1rrgzpg7FKRTnJ71GyYBI61aZN30FQsm4gCuuMj0ITKuws240uMVNIoRfek2/Lk81rzHRz3I0Xv3p4yD0pIxz7VIw9OlJ7hJ6kiN1zT1cmoRTlbHFZNHNKNyyrD8aUSZ6VArbeTyKFbPTis+Uw9mT7xu96Y0hyajLbjxxRux15o5QUQ4FQt8zU/J9ab71qtDoirDWXC1Ft5qZj+dJtH41dzaLsRlaKdj5sHmincfMZ+gx/8SbTWDZH2aLj/AIAK0DJuG0Db9Kz9Dbbo2nKvT7NF1/3BWiqgct+lD8zSp8V2XYFEcbZ69f0qNZDJcKe3pSNM23A6Y9KdaxqxQnOc1z2tds861k5SNLbshiP94VVtZSzdP4sVK8jFVXsvSoI/3bjb65rljH3Xc44rR3L+oLtjLqe4HFRWbbtwbsO9SzHzIsN0z2quo8skp39axj8HKzJfDYddRlWGPSmRnzI+RUzOJPvdcY4qFVKHA+7Wifu2ZS2sV5IwrE7up6UyRTJg7dgxjIqxIqsec5pjBgvONtdEZbHTGWxWOI+B+8b0NRmIu258xr1FWCqHlc76jk3vhTjaOK2UjpjIikkG0iMByfSiGLPzSkxj0NP8pLf5hncOnNRvI0vHGPpV+hqtVaO3cbJKWIEY3c4O2plXy1YscHsD3qNY1j5FJJL5mKfkimubSOwu8yNgdKk3BRUS/JzSM2aLA43dug7ndup5kDcdKiD4+lIT3FFg5bkmSvbOaPlPO7B9KQSbuDTWXuKAt3HbmyRt49aXCr0fJoVztAPSmqo7UAOUFuSuKKfzjFFSRcydEH/El04/9O0X/oArSUdPmz7VQ0PP9i6cDx/o0X/oAq+qBWyKs6Kj1Y9FaTqCozjkVbTbCvUMQe1Q+cWHP0oXqKwld7nBO8tGT7i5JzgelP46jFRLzUirtrJnMye3ky2H+Zcd6fJGGwUIHsKi7U6Mbc4rna1ujB73QoBXgimsD1B/CpWkLU1VFJPqwuR7d3bBqKQHOOoqw1M2le1aJlqRBtUDpg1BIp3ZB2irEqnO40x18xcelbxfU3jLW5BuDcE7qY0YTnr7UbEh7mgsG6HNb+h2LTbYjaUycBStMWMx8s26pNwXvTclhyMCrXkbrsthN27jpSFtvXmms5X7vNNGW+8MVaRoojsk96XdTfpR1p2KshwPvTvM28feqL6U7vmlYlxRKPm/2acPl6c1FncMVKr46VBjJMdz64oozu60VJmczo2ubdH039z/AMusX8f+wPar41z/AKYf+P8A/wBaiio5mepOlC70Hrro/wCeH/j/AP8AWqVdcHXyD/33/wDWoorOUmckqUOxMmuDbn7P3x9//wCtUq66P+fc/wDff/1qKK522ckqUOw7+3x/z7/+P/8A1qeNfH/Puf8Avv8A+tRRWMmzF0odhV14Nn/RzwM/f/8ArUn9vj/n3P8A33/9aiipuyfZQ7CN4gH/AD7/APj/AP8AWpp8Qf8ATD/x/wD+tRRVxZaow7DDrwbAMB6/3/8A61RNrwXIEH/j/wD9aiitotm0aUOxBJrSt1t//H//AK1R/wBuKo4t8f8AA/8A61FFbqTOuNOI1tbU/wDLD/x//wCtTW1zbgeT1H9//wCtRRWqkzpVOHYi/twZ/wBR/wCP/wD1qP7c/wCmH/j/AP8AWooq+Zm6pQ7Cf25gf6j/AMf/APrULrnGfJ/8f/8ArUUVXMyvZw7B/bg/54f+P/8A1qUa5/0w/wDH/wD61FFTzMl04dhw1wf88P8Ax/8A+tUq60NpPkf+P/8A1qKKhyZg6cewv9uj/nh/4/8A/WoooqeZmXsodj//2Q==;imageBackground=none;direction=east;" parent="1" vertex="1">
          <mxGeometry x="-21" y="201.93" width="150" height="80" as="geometry" />
        </mxCell>
        <mxCell id="MW2AbabD50GN0dSTxqUb-11" value="&lt;font style=&quot;font-size: 10px&quot;&gt;&lt;font face=&quot;Verdana&quot;&gt;&lt;b&gt;Input Cwt Coefficient&lt;br&gt;&lt;/b&gt;&lt;b&gt;16*68*256&lt;/b&gt;&lt;/font&gt;&lt;br&gt;&lt;/font&gt;" style="text;html=1;align=center;verticalAlign=middle;resizable=0;points=[];autosize=1;strokeColor=none;fillColor=none;fontSize=12;fontFamily=Helvetica;fontColor=default;" parent="1" vertex="1">
          <mxGeometry x="-21.000000000000004" y="154.62" width="138" height="41" as="geometry" />
        </mxCell>
        <mxCell id="MW2AbabD50GN0dSTxqUb-24" value="" style="verticalLabelPosition=bottom;verticalAlign=top;html=1;shape=mxgraph.basic.rect;fillColor2=none;strokeWidth=1;size=0;indent=5;rounded=0;fontFamily=Helvetica;fontSize=10;fillColor=#e3c800;strokeColor=#B09500;fontColor=#000000;" parent="1" vertex="1">
          <mxGeometry x="56" y="245.8" width="24" height="18.2" as="geometry" />
        </mxCell>
        <mxCell id="MW2AbabD50GN0dSTxqUb-35" value="" style="whiteSpace=wrap;html=1;rounded=0;fontFamily=Helvetica;fontSize=10;strokeColor=#3700CC;fillColor=#6a00ff;fontColor=#ffffff;opacity=80;" parent="1" vertex="1">
          <mxGeometry x="165.99" y="198.3" width="86.07" height="55" as="geometry" />
        </mxCell>
        <mxCell id="MW2AbabD50GN0dSTxqUb-36" value="" style="whiteSpace=wrap;html=1;rounded=0;fontFamily=Helvetica;fontSize=10;strokeColor=#3700CC;fillColor=#6a00ff;fontColor=#ffffff;opacity=70;" parent="1" vertex="1">
          <mxGeometry x="176" y="206.3" width="86.07" height="55" as="geometry" />
        </mxCell>
        <mxCell id="MW2AbabD50GN0dSTxqUb-37" value="" style="whiteSpace=wrap;html=1;rounded=0;fontFamily=Helvetica;fontSize=10;strokeColor=#3700CC;fillColor=#6a00ff;fontColor=#ffffff;opacity=70;" parent="1" vertex="1">
          <mxGeometry x="185" y="216.02" width="86.07" height="55" as="geometry" />
        </mxCell>
        <mxCell id="MW2AbabD50GN0dSTxqUb-40" value="" style="endArrow=none;html=1;rounded=0;fontFamily=Helvetica;fontSize=10;fontColor=default;exitX=1.025;exitY=-0.017;exitDx=0;exitDy=0;exitPerimeter=0;" parent="1" source="MW2AbabD50GN0dSTxqUb-24" edge="1">
          <mxGeometry width="50" height="50" relative="1" as="geometry">
            <mxPoint x="400" y="250" as="sourcePoint" />
            <mxPoint x="216" y="264" as="targetPoint" />
            <Array as="points" />
          </mxGeometry>
        </mxCell>
        <mxCell id="MW2AbabD50GN0dSTxqUb-42" value="" style="whiteSpace=wrap;html=1;rounded=0;fontFamily=Helvetica;fontSize=10;strokeColor=#3700CC;fillColor=#6a00ff;fontColor=#ffffff;opacity=70;" parent="1" vertex="1">
          <mxGeometry x="332" y="205.8" width="62" height="40" as="geometry" />
        </mxCell>
        <mxCell id="MW2AbabD50GN0dSTxqUb-43" value="" style="whiteSpace=wrap;html=1;rounded=0;fontFamily=Helvetica;fontSize=10;strokeColor=#3700CC;fillColor=#6a00ff;fontColor=#ffffff;opacity=70;" parent="1" vertex="1">
          <mxGeometry x="338" y="212.3" width="62.07" height="40" as="geometry" />
        </mxCell>
        <mxCell id="MW2AbabD50GN0dSTxqUb-44" value="" style="whiteSpace=wrap;html=1;rounded=0;fontFamily=Helvetica;fontSize=10;strokeColor=#3700CC;fillColor=#6a00ff;fontColor=#ffffff;opacity=70;" parent="1" vertex="1">
          <mxGeometry x="347" y="224.03" width="62.07" height="40" as="geometry" />
        </mxCell>
        <mxCell id="MW2AbabD50GN0dSTxqUb-46" value="" style="whiteSpace=wrap;html=1;rounded=0;fontFamily=Helvetica;fontSize=10;strokeColor=#3700CC;fillColor=#6a00ff;fontColor=#ffffff;opacity=70;" parent="1" vertex="1">
          <mxGeometry x="460.57" y="207" width="38.07" height="25" as="geometry" />
        </mxCell>
        <mxCell id="MW2AbabD50GN0dSTxqUb-54" value="" style="whiteSpace=wrap;html=1;rounded=0;fontFamily=Helvetica;fontSize=10;strokeColor=#3700CC;fillColor=#6a00ff;fontColor=#ffffff;opacity=70;" parent="1" vertex="1">
          <mxGeometry x="467" y="213.79999999999998" width="38.07" height="24" as="geometry" />
        </mxCell>
        <mxCell id="MW2AbabD50GN0dSTxqUb-55" value="" style="whiteSpace=wrap;html=1;rounded=0;fontFamily=Helvetica;fontSize=10;strokeColor=#3700CC;fillColor=#6a00ff;fontColor=#ffffff;opacity=70;" parent="1" vertex="1">
          <mxGeometry x="474.04" y="218.8" width="38" height="24" as="geometry" />
        </mxCell>
        <mxCell id="MW2AbabD50GN0dSTxqUb-57" value="" style="whiteSpace=wrap;html=1;rounded=0;fontFamily=Helvetica;fontSize=10;strokeColor=#3700CC;fillColor=#6a00ff;fontColor=#ffffff;opacity=70;" parent="1" vertex="1">
          <mxGeometry x="483" y="223.96" width="38.07" height="24" as="geometry" />
        </mxCell>
        <mxCell id="MW2AbabD50GN0dSTxqUb-58" value="" style="whiteSpace=wrap;html=1;rounded=0;fontFamily=Helvetica;fontSize=10;strokeColor=#3700CC;fillColor=#6a00ff;fontColor=#ffffff;opacity=70;" parent="1" vertex="1">
          <mxGeometry x="489.93" y="228.3" width="38.07" height="24" as="geometry" />
        </mxCell>
        <mxCell id="MW2AbabD50GN0dSTxqUb-59" value="" style="whiteSpace=wrap;html=1;rounded=0;fontFamily=Helvetica;fontSize=10;strokeColor=#3700CC;fillColor=#6a00ff;fontColor=#ffffff;opacity=70;" parent="1" vertex="1">
          <mxGeometry x="496" y="234" width="38.07" height="24" as="geometry" />
        </mxCell>
        <mxCell id="MW2AbabD50GN0dSTxqUb-60" value="" style="whiteSpace=wrap;html=1;rounded=0;fontFamily=Helvetica;fontSize=10;strokeColor=#3700CC;fillColor=#6a00ff;fontColor=#ffffff;opacity=70;" parent="1" vertex="1">
          <mxGeometry x="502.07" y="236.8" width="38.07" height="24" as="geometry" />
        </mxCell>
        <mxCell id="MW2AbabD50GN0dSTxqUb-62" value="" style="whiteSpace=wrap;html=1;rounded=0;fontFamily=Helvetica;fontSize=10;strokeColor=#3700CC;fillColor=#6a00ff;fontColor=#ffffff;opacity=70;" parent="1" vertex="1">
          <mxGeometry x="576" y="208.87" width="27" height="18" as="geometry" />
        </mxCell>
        <mxCell id="MW2AbabD50GN0dSTxqUb-64" value="" style="whiteSpace=wrap;html=1;rounded=0;fontFamily=Helvetica;fontSize=10;strokeColor=#3700CC;fillColor=#6a00ff;fontColor=#ffffff;opacity=70;" parent="1" vertex="1">
          <mxGeometry x="584" y="213.93" width="27" height="18" as="geometry" />
        </mxCell>
        <mxCell id="MW2AbabD50GN0dSTxqUb-65" value="" style="whiteSpace=wrap;html=1;rounded=0;fontFamily=Helvetica;fontSize=10;strokeColor=#3700CC;fillColor=#6a00ff;fontColor=#ffffff;opacity=70;" parent="1" vertex="1">
          <mxGeometry x="592" y="218.8" width="27" height="18" as="geometry" />
        </mxCell>
        <mxCell id="MW2AbabD50GN0dSTxqUb-66" value="" style="whiteSpace=wrap;html=1;rounded=0;fontFamily=Helvetica;fontSize=10;strokeColor=#3700CC;fillColor=#6a00ff;fontColor=#ffffff;opacity=70;" parent="1" vertex="1">
          <mxGeometry x="603" y="225" width="27" height="18" as="geometry" />
        </mxCell>
        <mxCell id="MW2AbabD50GN0dSTxqUb-68" value="" style="whiteSpace=wrap;html=1;rounded=0;fontFamily=Helvetica;fontSize=10;strokeColor=#3700CC;fillColor=#6a00ff;fontColor=#ffffff;opacity=70;" parent="1" vertex="1">
          <mxGeometry x="611" y="229.96" width="26.04" height="18" as="geometry" />
        </mxCell>
        <mxCell id="MW2AbabD50GN0dSTxqUb-69" value="" style="whiteSpace=wrap;html=1;rounded=0;fontFamily=Helvetica;fontSize=10;strokeColor=#3700CC;fillColor=#6a00ff;fontColor=#ffffff;opacity=70;" parent="1" vertex="1">
          <mxGeometry x="619" y="235.42" width="27" height="18" as="geometry" />
        </mxCell>
        <mxCell id="MW2AbabD50GN0dSTxqUb-70" value="" style="whiteSpace=wrap;html=1;rounded=0;fontFamily=Helvetica;fontSize=10;strokeColor=#3700CC;fillColor=#6a00ff;fontColor=#ffffff;opacity=70;" parent="1" vertex="1">
          <mxGeometry x="624" y="241.4" width="27" height="18" as="geometry" />
        </mxCell>
        <mxCell id="MW2AbabD50GN0dSTxqUb-96" value="" style="verticalLabelPosition=bottom;dashed=0;shadow=0;html=1;align=center;verticalAlign=top;shape=stencil(tZNNbsIwEIVP472xU8IWpe0JuIAJAxnVP5EdCNwex5OgJJRUrVQpm/meM++NNWayCJWqgQmuQg1lw+Q7E+KiPKq9jlhEpSK4yjjVVhkgtANv0CodYf5mjCA9NN59QYuHpv8TbQUeG1JbYjI1kx+MbyPsPlmUztqYAZ0NiX3O9KPzcPLubA8TYZB9l/8RN+ff+Al+pbKvbpNq7vjwRa1pqIVDterGfRIG2bgLvLLPFv2HDhrtqIP8TQtZRP4iYNyAn0YDrbEOMFqF9eRuh7KPlk+SrcRysv91zzZ/dE9X9rRwidKLSeAO);rounded=0;labelBackgroundColor=none;sketch=0;fontFamily=Helvetica;fontSize=10;fontColor=#ffffff;strokeColor=#2D7600;fillColor=#60a917;opacity=70;gradientColor=none;" parent="1" vertex="1">
          <mxGeometry x="784" y="224.03" width="15" height="70" as="geometry" />
        </mxCell>
        <mxCell id="MW2AbabD50GN0dSTxqUb-113" value="" style="rounded=0;whiteSpace=wrap;html=1;labelBackgroundColor=none;sketch=0;fontFamily=Helvetica;fontSize=10;fontColor=#000000;strokeColor=#B09500;fillColor=#e3c800;" parent="1" vertex="1">
          <mxGeometry x="518.07" y="239.04" width="9.93" height="8.96" as="geometry" />
        </mxCell>
        <mxCell id="MW2AbabD50GN0dSTxqUb-116" value="" style="endArrow=none;html=1;rounded=0;fontFamily=Helvetica;fontSize=10;fontColor=default;exitX=0;exitY=1;exitDx=0;exitDy=0;" parent="1" source="MW2AbabD50GN0dSTxqUb-113" edge="1">
          <mxGeometry width="50" height="50" relative="1" as="geometry">
            <mxPoint x="584" y="266" as="sourcePoint" />
            <mxPoint x="632" y="256" as="targetPoint" />
            <Array as="points" />
          </mxGeometry>
        </mxCell>
        <mxCell id="MW2AbabD50GN0dSTxqUb-119" value="" style="endArrow=none;html=1;rounded=0;fontFamily=Helvetica;fontSize=10;fontColor=default;exitX=1;exitY=0;exitDx=0;exitDy=0;" parent="1" source="MW2AbabD50GN0dSTxqUb-113" edge="1">
          <mxGeometry width="50" height="50" relative="1" as="geometry">
            <mxPoint x="600" y="274" as="sourcePoint" />
            <mxPoint x="632" y="256" as="targetPoint" />
            <Array as="points" />
          </mxGeometry>
        </mxCell>
        <mxCell id="MW2AbabD50GN0dSTxqUb-121" value="" style="endArrow=none;html=1;rounded=0;fontFamily=Helvetica;fontSize=10;fontColor=default;exitX=0;exitY=0;exitDx=0;exitDy=0;" parent="1" source="MW2AbabD50GN0dSTxqUb-113" edge="1">
          <mxGeometry width="50" height="50" relative="1" as="geometry">
            <mxPoint x="624" y="314" as="sourcePoint" />
            <mxPoint x="632" y="256" as="targetPoint" />
          </mxGeometry>
        </mxCell>
        <mxCell id="MW2AbabD50GN0dSTxqUb-125" value="" style="rounded=0;whiteSpace=wrap;html=1;labelBackgroundColor=none;sketch=0;fontFamily=Helvetica;fontSize=10;fontColor=#000000;strokeColor=#B09500;fillColor=#e3c800;aspect=fixed;" parent="1" vertex="1">
          <mxGeometry x="637.04" y="252" width="6" height="6" as="geometry" />
        </mxCell>
        <mxCell id="MW2AbabD50GN0dSTxqUb-126" value="" style="endArrow=none;html=1;rounded=0;fontFamily=Helvetica;fontSize=10;fontColor=default;" parent="1" edge="1">
          <mxGeometry width="50" height="50" relative="1" as="geometry">
            <mxPoint x="637.04" y="252.56" as="sourcePoint" />
            <mxPoint x="688" y="168" as="targetPoint" />
          </mxGeometry>
        </mxCell>
        <mxCell id="MW2AbabD50GN0dSTxqUb-131" value="" style="endArrow=none;html=1;rounded=0;fontFamily=Helvetica;fontSize=10;fontColor=default;entryX=0.438;entryY=0.943;entryDx=0;entryDy=0;entryPerimeter=0;" parent="1" edge="1">
          <mxGeometry width="50" height="50" relative="1" as="geometry">
            <mxPoint x="637.04" y="257.99999999999994" as="sourcePoint" />
            <mxPoint x="687.008" y="322.9178" as="targetPoint" />
          </mxGeometry>
        </mxCell>
        <mxCell id="MW2AbabD50GN0dSTxqUb-145" value="" style="endArrow=none;html=1;rounded=0;fontFamily=Helvetica;fontSize=10;fontColor=default;" parent="1" edge="1">
          <mxGeometry width="50" height="50" relative="1" as="geometry">
            <mxPoint x="688" y="168" as="sourcePoint" />
            <mxPoint x="744" y="320" as="targetPoint" />
          </mxGeometry>
        </mxCell>
        <mxCell id="MW2AbabD50GN0dSTxqUb-147" value="" style="endArrow=none;html=1;rounded=0;fontFamily=Helvetica;fontSize=10;fontColor=default;" parent="1" edge="1">
          <mxGeometry width="50" height="50" relative="1" as="geometry">
            <mxPoint x="744" y="184" as="sourcePoint" />
            <mxPoint x="688" y="328" as="targetPoint" />
          </mxGeometry>
        </mxCell>
        <mxCell id="MW2AbabD50GN0dSTxqUb-148" value="" style="endArrow=none;html=1;rounded=0;fontFamily=Helvetica;fontSize=10;fontColor=default;" parent="1" edge="1">
          <mxGeometry width="50" height="50" relative="1" as="geometry">
            <mxPoint x="688" y="320" as="sourcePoint" />
            <mxPoint x="744" y="296" as="targetPoint" />
          </mxGeometry>
        </mxCell>
        <mxCell id="MW2AbabD50GN0dSTxqUb-149" value="" style="endArrow=none;html=1;rounded=0;fontFamily=Helvetica;fontSize=10;fontColor=default;" parent="1" edge="1">
          <mxGeometry width="50" height="50" relative="1" as="geometry">
            <mxPoint x="688" y="192" as="sourcePoint" />
            <mxPoint x="744" y="248" as="targetPoint" />
          </mxGeometry>
        </mxCell>
        <mxCell id="MW2AbabD50GN0dSTxqUb-150" value="" style="endArrow=none;html=1;rounded=0;fontFamily=Helvetica;fontSize=10;fontColor=default;" parent="1" edge="1">
          <mxGeometry width="50" height="50" relative="1" as="geometry">
            <mxPoint x="688" y="176" as="sourcePoint" />
            <mxPoint x="744" y="232" as="targetPoint" />
          </mxGeometry>
        </mxCell>
        <mxCell id="MW2AbabD50GN0dSTxqUb-151" value="" style="endArrow=none;html=1;rounded=0;fontFamily=Helvetica;fontSize=10;fontColor=default;startArrow=none;" parent="1" edge="1">
          <mxGeometry width="50" height="50" relative="1" as="geometry">
            <mxPoint x="744" y="192" as="sourcePoint" />
            <mxPoint x="688" y="272" as="targetPoint" />
          </mxGeometry>
        </mxCell>
        <mxCell id="MW2AbabD50GN0dSTxqUb-152" value="" style="endArrow=none;html=1;rounded=0;fontFamily=Helvetica;fontSize=10;fontColor=default;" parent="1" edge="1">
          <mxGeometry width="50" height="50" relative="1" as="geometry">
            <mxPoint x="744" y="264" as="sourcePoint" />
            <mxPoint x="688" y="240" as="targetPoint" />
          </mxGeometry>
        </mxCell>
        <mxCell id="MW2AbabD50GN0dSTxqUb-153" value="" style="endArrow=none;html=1;rounded=0;fontFamily=Helvetica;fontSize=10;fontColor=default;" parent="1" edge="1">
          <mxGeometry width="50" height="50" relative="1" as="geometry">
            <mxPoint x="744" y="256" as="sourcePoint" />
            <mxPoint x="688" y="304" as="targetPoint" />
          </mxGeometry>
        </mxCell>
        <mxCell id="MW2AbabD50GN0dSTxqUb-154" value="" style="endArrow=none;html=1;rounded=0;fontFamily=Helvetica;fontSize=10;fontColor=default;" parent="1" edge="1">
          <mxGeometry width="50" height="50" relative="1" as="geometry">
            <mxPoint x="688" y="208" as="sourcePoint" />
            <mxPoint x="744" y="200" as="targetPoint" />
          </mxGeometry>
        </mxCell>
        <mxCell id="MW2AbabD50GN0dSTxqUb-155" value="" style="endArrow=none;html=1;rounded=0;fontFamily=Helvetica;fontSize=10;fontColor=default;" parent="1" edge="1">
          <mxGeometry width="50" height="50" relative="1" as="geometry">
            <mxPoint x="688" y="280" as="sourcePoint" />
            <mxPoint x="744" y="272" as="targetPoint" />
          </mxGeometry>
        </mxCell>
        <mxCell id="MW2AbabD50GN0dSTxqUb-156" value="" style="endArrow=none;html=1;rounded=0;fontFamily=Helvetica;fontSize=10;fontColor=default;" parent="1" edge="1">
          <mxGeometry width="50" height="50" relative="1" as="geometry">
            <mxPoint x="688" y="288" as="sourcePoint" />
            <mxPoint x="744" y="280" as="targetPoint" />
          </mxGeometry>
        </mxCell>
        <mxCell id="MW2AbabD50GN0dSTxqUb-157" value="" style="endArrow=none;html=1;rounded=0;fontFamily=Helvetica;fontSize=10;fontColor=default;startArrow=none;" parent="1" edge="1">
          <mxGeometry width="50" height="50" relative="1" as="geometry">
            <mxPoint x="744" y="208" as="sourcePoint" />
            <mxPoint x="688" y="264" as="targetPoint" />
          </mxGeometry>
        </mxCell>
        <mxCell id="MW2AbabD50GN0dSTxqUb-158" value="" style="endArrow=none;html=1;rounded=0;fontFamily=Helvetica;fontSize=10;fontColor=default;entryX=0.237;entryY=0.127;entryDx=0;entryDy=0;entryPerimeter=0;fillColor=#e51400;strokeColor=#B20000;" parent="1" target="MW2AbabD50GN0dSTxqUb-96" edge="1">
          <mxGeometry width="50" height="50" relative="1" as="geometry">
            <mxPoint x="744" y="320" as="sourcePoint" />
            <mxPoint x="794" y="245.8" as="targetPoint" />
          </mxGeometry>
        </mxCell>
        <mxCell id="MW2AbabD50GN0dSTxqUb-159" value="" style="endArrow=none;html=1;rounded=0;fontFamily=Helvetica;fontSize=10;fontColor=default;entryX=0.256;entryY=0.122;entryDx=0;entryDy=0;entryPerimeter=0;fillColor=#e51400;strokeColor=#B20000;startArrow=none;" parent="1" target="MW2AbabD50GN0dSTxqUb-96" edge="1">
          <mxGeometry width="50" height="50" relative="1" as="geometry">
            <mxPoint x="744" y="216" as="sourcePoint" />
            <mxPoint x="794" y="274.47" as="targetPoint" />
          </mxGeometry>
        </mxCell>
        <mxCell id="MW2AbabD50GN0dSTxqUb-161" value="" style="endArrow=none;html=1;rounded=0;fontFamily=Helvetica;fontSize=10;fontColor=default;entryX=0.573;entryY=0.459;entryDx=0;entryDy=0;entryPerimeter=0;fillColor=#e51400;strokeColor=#B20000;" parent="1" target="MW2AbabD50GN0dSTxqUb-96" edge="1">
          <mxGeometry width="50" height="50" relative="1" as="geometry">
            <mxPoint x="744" y="184" as="sourcePoint" />
            <mxPoint x="792" y="248" as="targetPoint" />
          </mxGeometry>
        </mxCell>
        <mxCell id="MW2AbabD50GN0dSTxqUb-162" value="" style="endArrow=classic;html=1;rounded=0;fontFamily=Helvetica;fontSize=10;fontColor=default;" parent="1" edge="1">
          <mxGeometry width="50" height="50" relative="1" as="geometry">
            <mxPoint x="119.23" y="328" as="sourcePoint" />
            <mxPoint x="151.23" y="280" as="targetPoint" />
          </mxGeometry>
        </mxCell>
        <mxCell id="MW2AbabD50GN0dSTxqUb-163" value="&lt;font face=&quot;Verdana&quot;&gt;&lt;b&gt;Convolution&lt;br&gt;Kernel =3*3&lt;br&gt;ReLU Activation&lt;/b&gt;&lt;/font&gt;" style="text;html=1;align=center;verticalAlign=middle;resizable=0;points=[];autosize=1;strokeColor=none;fillColor=none;fontSize=10;fontFamily=Helvetica;fontColor=default;" parent="1" vertex="1">
          <mxGeometry x="47" y="321" width="107" height="51" as="geometry" />
        </mxCell>
        <mxCell id="MW2AbabD50GN0dSTxqUb-164" value="" style="endArrow=none;html=1;rounded=0;fontFamily=Verdana;fontSize=10;fontColor=default;" parent="1" edge="1">
          <mxGeometry width="50" height="50" relative="1" as="geometry">
            <mxPoint x="808" y="234.81" as="sourcePoint" />
            <mxPoint x="824" y="234.81" as="targetPoint" />
          </mxGeometry>
        </mxCell>
        <mxCell id="MW2AbabD50GN0dSTxqUb-165" value="" style="endArrow=none;html=1;rounded=0;fontFamily=Verdana;fontSize=10;fontColor=default;" parent="1" edge="1">
          <mxGeometry width="50" height="50" relative="1" as="geometry">
            <mxPoint x="808" y="252.43" as="sourcePoint" />
            <mxPoint x="824" y="252" as="targetPoint" />
          </mxGeometry>
        </mxCell>
        <mxCell id="MW2AbabD50GN0dSTxqUb-166" value="Ischemic" style="text;html=1;align=center;verticalAlign=middle;resizable=0;points=[];autosize=1;strokeColor=none;fillColor=none;fontSize=10;fontFamily=Verdana;fontColor=default;fontStyle=1" parent="1" vertex="1">
          <mxGeometry x="820" y="221.8" width="64" height="24" as="geometry" />
        </mxCell>
        <mxCell id="MW2AbabD50GN0dSTxqUb-167" value="Haemorrhagic" style="text;html=1;align=center;verticalAlign=middle;resizable=0;points=[];autosize=1;strokeColor=none;fillColor=none;fontSize=10;fontFamily=Verdana;fontColor=default;fontStyle=1" parent="1" vertex="1">
          <mxGeometry x="822" y="238.42" width="88" height="24" as="geometry" />
        </mxCell>
        <mxCell id="MW2AbabD50GN0dSTxqUb-168" value="Sigmoid" style="text;html=1;align=center;verticalAlign=middle;resizable=0;points=[];autosize=1;strokeColor=none;fillColor=none;fontSize=10;fontFamily=Verdana;fontColor=default;fontStyle=1" parent="1" vertex="1">
          <mxGeometry x="776" y="198.4" width="56" height="24" as="geometry" />
        </mxCell>
        <mxCell id="MW2AbabD50GN0dSTxqUb-169" value="" style="endArrow=classic;html=1;rounded=0;fontFamily=Verdana;fontSize=10;fontColor=default;" parent="1" edge="1">
          <mxGeometry width="50" height="50" relative="1" as="geometry">
            <mxPoint x="270.07" y="331.95" as="sourcePoint" />
            <mxPoint x="296" y="280" as="targetPoint" />
          </mxGeometry>
        </mxCell>
        <mxCell id="MW2AbabD50GN0dSTxqUb-170" value="Max Pooling&lt;br&gt;Kernel =2*2&lt;br&gt;ReLU Activation" style="text;html=1;align=center;verticalAlign=middle;resizable=0;points=[];autosize=1;strokeColor=none;fillColor=none;fontSize=10;fontFamily=Verdana;fontColor=default;fontStyle=1" parent="1" vertex="1">
          <mxGeometry x="216" y="322" width="104" height="48" as="geometry" />
        </mxCell>
        <mxCell id="MW2AbabD50GN0dSTxqUb-171" value="&lt;font face=&quot;Verdana&quot;&gt;&lt;b&gt;Convolution&lt;br&gt;Kernel =3*3&lt;br&gt;ReLU Activation&lt;/b&gt;&lt;/font&gt;" style="text;html=1;align=center;verticalAlign=middle;resizable=0;points=[];autosize=1;strokeColor=none;fillColor=none;fontSize=10;fontFamily=Helvetica;fontColor=default;" parent="1" vertex="1">
          <mxGeometry x="367" y="321" width="107" height="51" as="geometry" />
        </mxCell>
        <mxCell id="MW2AbabD50GN0dSTxqUb-172" value="" style="endArrow=classic;html=1;rounded=0;fontFamily=Verdana;fontSize=10;fontColor=default;" parent="1" edge="1">
          <mxGeometry width="50" height="50" relative="1" as="geometry">
            <mxPoint x="431.99999999999994" y="324.83000000000004" as="sourcePoint" />
            <mxPoint x="457.93" y="272.88" as="targetPoint" />
          </mxGeometry>
        </mxCell>
        <mxCell id="MW2AbabD50GN0dSTxqUb-173" value="" style="endArrow=classic;html=1;rounded=0;fontFamily=Verdana;fontSize=10;fontColor=default;" parent="1" edge="1">
          <mxGeometry width="50" height="50" relative="1" as="geometry">
            <mxPoint x="528" y="322.00000000000006" as="sourcePoint" />
            <mxPoint x="553.9300000000001" y="270.05" as="targetPoint" />
          </mxGeometry>
        </mxCell>
        <mxCell id="MW2AbabD50GN0dSTxqUb-174" value="Max Pooling&lt;br&gt;Kernel =2*2&lt;br&gt;ReLU Activation" style="text;html=1;align=center;verticalAlign=middle;resizable=0;points=[];autosize=1;strokeColor=none;fillColor=none;fontSize=10;fontFamily=Verdana;fontColor=default;fontStyle=1" parent="1" vertex="1">
          <mxGeometry x="480" y="322" width="104" height="48" as="geometry" />
        </mxCell>
        <mxCell id="MW2AbabD50GN0dSTxqUb-175" value="" style="endArrow=classic;html=1;rounded=0;fontFamily=Verdana;fontSize=10;fontColor=default;" parent="1" edge="1">
          <mxGeometry width="50" height="50" relative="1" as="geometry">
            <mxPoint x="666.04" y="193.93" as="sourcePoint" />
            <mxPoint x="640" y="160" as="targetPoint" />
          </mxGeometry>
        </mxCell>
        <mxCell id="MW2AbabD50GN0dSTxqUb-176" value="&lt;b&gt;Flatten&lt;/b&gt;" style="text;html=1;align=center;verticalAlign=middle;resizable=0;points=[];autosize=1;strokeColor=none;fillColor=none;fontSize=10;fontFamily=Verdana;fontColor=default;" parent="1" vertex="1">
          <mxGeometry x="613.5" y="129.93" width="48" height="24" as="geometry" />
        </mxCell>
        <mxCell id="MW2AbabD50GN0dSTxqUb-177" value="Hidden Layer&lt;br&gt;128 Feature map&lt;br&gt;16*68" style="text;html=1;align=center;verticalAlign=middle;resizable=0;points=[];autosize=1;strokeColor=none;fillColor=none;fontSize=10;fontFamily=Verdana;fontColor=default;fontStyle=1" parent="1" vertex="1">
          <mxGeometry x="155" y="146" width="114" height="48" as="geometry" />
        </mxCell>
        <mxCell id="MW2AbabD50GN0dSTxqUb-178" value="Hidden Layer&lt;br&gt;128 Feature map&lt;br&gt;8*34" style="text;html=1;align=center;verticalAlign=middle;resizable=0;points=[];autosize=1;strokeColor=none;fillColor=none;fontSize=10;fontFamily=Verdana;fontColor=default;fontStyle=1" parent="1" vertex="1">
          <mxGeometry x="290.03999999999996" y="145.93" width="114" height="48" as="geometry" />
        </mxCell>
        <mxCell id="MW2AbabD50GN0dSTxqUb-179" value="Hidden Layer&lt;br&gt;256 Feature map&lt;br&gt;8*34" style="text;html=1;align=center;verticalAlign=middle;resizable=0;points=[];autosize=1;strokeColor=none;fillColor=none;fontSize=10;fontFamily=Verdana;fontColor=default;fontStyle=1" parent="1" vertex="1">
          <mxGeometry x="409.06999999999994" y="148.31" width="114" height="48" as="geometry" />
        </mxCell>
        <mxCell id="MW2AbabD50GN0dSTxqUb-180" value="Hidden Layer&lt;br&gt;256 Feature map&lt;br&gt;4*17" style="text;html=1;align=center;verticalAlign=middle;resizable=0;points=[];autosize=1;strokeColor=none;fillColor=none;fontSize=10;fontFamily=Verdana;fontColor=default;fontStyle=1" parent="1" vertex="1">
          <mxGeometry x="521.0699999999999" y="148.31" width="114" height="48" as="geometry" />
        </mxCell>
        <mxCell id="MW2AbabD50GN0dSTxqUb-181" value="Hidden Unit&lt;br&gt;512" style="text;html=1;align=center;verticalAlign=middle;resizable=0;points=[];autosize=1;strokeColor=none;fillColor=none;fontSize=10;fontFamily=Verdana;fontColor=default;fontStyle=1" parent="1" vertex="1">
          <mxGeometry x="628.07" y="338.6" width="84" height="36" as="geometry" />
        </mxCell>
        <mxCell id="MW2AbabD50GN0dSTxqUb-182" value="&lt;b&gt;Hidden Unit&lt;br&gt;128&lt;br&gt;&lt;/b&gt;" style="text;html=1;align=center;verticalAlign=middle;resizable=0;points=[];autosize=1;strokeColor=none;fillColor=none;fontSize=10;fontFamily=Verdana;fontColor=default;" parent="1" vertex="1">
          <mxGeometry x="702" y="338.6" width="84" height="36" as="geometry" />
        </mxCell>
        <mxCell id="MW2AbabD50GN0dSTxqUb-187" value="" style="endArrow=none;html=1;rounded=0;fontFamily=Verdana;fontSize=10;fontColor=default;" parent="1" edge="1">
          <mxGeometry width="50" height="50" relative="1" as="geometry">
            <mxPoint x="688" y="232" as="sourcePoint" />
            <mxPoint x="744" y="240" as="targetPoint" />
          </mxGeometry>
        </mxCell>
        <mxCell id="MW2AbabD50GN0dSTxqUb-189" value="" style="endArrow=none;html=1;rounded=0;fontFamily=Helvetica;fontSize=10;fontColor=default;exitX=0.002;exitY=0.319;exitDx=0;exitDy=0;exitPerimeter=0;" parent="1" edge="1">
          <mxGeometry width="50" height="50" relative="1" as="geometry">
            <mxPoint x="688.0799999999999" y="222.38" as="sourcePoint" />
            <mxPoint x="744" y="312" as="targetPoint" />
          </mxGeometry>
        </mxCell>
        <mxCell id="MW2AbabD50GN0dSTxqUb-188" value="" style="shape=rect;dashed=0;shadow=0;html=1;whiteSpace=wrap;direction=south;horizontal=0;rounded=0;labelBackgroundColor=none;sketch=0;fontFamily=Verdana;fontSize=10;fontColor=#ffffff;strokeColor=#001DBC;fillColor=#0050ef;opacity=80;" parent="1" vertex="1">
          <mxGeometry x="680" y="154.61999999999998" width="16" height="184.84" as="geometry" />
        </mxCell>
        <mxCell id="MW2AbabD50GN0dSTxqUb-190" value="" style="endArrow=none;html=1;rounded=0;fontFamily=Helvetica;fontSize=10;fontColor=default;" parent="1" edge="1">
          <mxGeometry width="50" height="50" relative="1" as="geometry">
            <mxPoint x="688" y="216" as="sourcePoint" />
            <mxPoint x="744" y="288" as="targetPoint" />
          </mxGeometry>
        </mxCell>
        <mxCell id="MW2AbabD50GN0dSTxqUb-192" value="" style="endArrow=none;dashed=1;html=1;dashPattern=1 3;strokeWidth=2;rounded=0;fontFamily=Verdana;fontSize=10;fontColor=default;" parent="1" edge="1">
          <mxGeometry width="50" height="50" relative="1" as="geometry">
            <mxPoint x="688" y="328" as="sourcePoint" />
            <mxPoint x="688" y="160" as="targetPoint" />
          </mxGeometry>
        </mxCell>
        <mxCell id="MW2AbabD50GN0dSTxqUb-194" value="" style="shape=rect;dashed=0;shadow=0;html=1;whiteSpace=wrap;direction=south;horizontal=0;rounded=0;labelBackgroundColor=none;sketch=0;fontFamily=Verdana;fontSize=10;fontColor=#ffffff;strokeColor=#001DBC;fillColor=#0050ef;opacity=70;" parent="1" vertex="1">
          <mxGeometry x="736" y="175.94" width="16" height="148.96" as="geometry" />
        </mxCell>
        <mxCell id="MW2AbabD50GN0dSTxqUb-196" value="" style="endArrow=none;dashed=1;html=1;dashPattern=1 3;strokeWidth=2;rounded=0;fontFamily=Verdana;fontSize=10;fontColor=default;" parent="1" edge="1">
          <mxGeometry width="50" height="50" relative="1" as="geometry">
            <mxPoint x="743.8600000000001" y="320.44" as="sourcePoint" />
            <mxPoint x="743.8600000000001" y="177.4" as="targetPoint" />
          </mxGeometry>
        </mxCell>
        <mxCell id="MW2AbabD50GN0dSTxqUb-197" value="" style="endArrow=none;html=1;rounded=0;fontFamily=Helvetica;fontSize=10;fontColor=default;fillColor=#e51400;strokeColor=#B20000;exitX=0.265;exitY=0.114;exitDx=0;exitDy=0;exitPerimeter=0;" parent="1" source="MW2AbabD50GN0dSTxqUb-96" edge="1">
          <mxGeometry width="50" height="50" relative="1" as="geometry">
            <mxPoint x="784" y="296" as="sourcePoint" />
            <mxPoint x="744" y="264" as="targetPoint" />
          </mxGeometry>
        </mxCell>
        <mxCell id="MW2AbabD50GN0dSTxqUb-201" value="" style="endArrow=none;html=1;rounded=0;fontFamily=Verdana;fontSize=10;fontColor=default;fillColor=#e51400;strokeColor=#B20000;" parent="1" edge="1">
          <mxGeometry width="50" height="50" relative="1" as="geometry">
            <mxPoint x="744" y="232" as="sourcePoint" />
            <mxPoint x="792" y="256" as="targetPoint" />
          </mxGeometry>
        </mxCell>
        <mxCell id="MW2AbabD50GN0dSTxqUb-202" value="" style="endArrow=none;html=1;rounded=0;fontFamily=Verdana;fontSize=10;fontColor=default;entryX=0.493;entryY=0.456;entryDx=0;entryDy=0;entryPerimeter=0;fillColor=#e51400;strokeColor=#B20000;" parent="1" target="MW2AbabD50GN0dSTxqUb-96" edge="1">
          <mxGeometry width="50" height="50" relative="1" as="geometry">
            <mxPoint x="744" y="304" as="sourcePoint" />
            <mxPoint x="770" y="184" as="targetPoint" />
          </mxGeometry>
        </mxCell>
        <mxCell id="MW2AbabD50GN0dSTxqUb-203" value="" style="endArrow=none;html=1;rounded=0;fontFamily=Verdana;fontSize=10;fontColor=default;fillColor=#e51400;strokeColor=#B20000;" parent="1" edge="1">
          <mxGeometry width="50" height="50" relative="1" as="geometry">
            <mxPoint x="744" y="280" as="sourcePoint" />
            <mxPoint x="792" y="256" as="targetPoint" />
          </mxGeometry>
        </mxCell>
        <mxCell id="MW2AbabD50GN0dSTxqUb-204" value="" style="endArrow=none;html=1;rounded=0;fontFamily=Verdana;fontSize=10;fontColor=default;fillColor=#e51400;strokeColor=#B20000;" parent="1" edge="1">
          <mxGeometry width="50" height="50" relative="1" as="geometry">
            <mxPoint x="792" y="256" as="sourcePoint" />
            <mxPoint x="744" y="200" as="targetPoint" />
          </mxGeometry>
        </mxCell>
        <mxCell id="MW2AbabD50GN0dSTxqUb-205" value="" style="endArrow=none;html=1;rounded=0;fontFamily=Verdana;fontSize=10;fontColor=default;entryX=0.207;entryY=0.136;entryDx=0;entryDy=0;entryPerimeter=0;fillColor=#e51400;strokeColor=#B20000;" parent="1" target="MW2AbabD50GN0dSTxqUb-96" edge="1">
          <mxGeometry width="50" height="50" relative="1" as="geometry">
            <mxPoint x="744" y="272" as="sourcePoint" />
            <mxPoint x="784" y="232" as="targetPoint" />
          </mxGeometry>
        </mxCell>
        <mxCell id="MW2AbabD50GN0dSTxqUb-206" value="" style="endArrow=none;html=1;rounded=0;fontFamily=Verdana;fontSize=10;fontColor=default;entryX=0.296;entryY=0.107;entryDx=0;entryDy=0;entryPerimeter=0;fillColor=#e51400;strokeColor=#B20000;" parent="1" target="MW2AbabD50GN0dSTxqUb-96" edge="1">
          <mxGeometry width="50" height="50" relative="1" as="geometry">
            <mxPoint x="744" y="224" as="sourcePoint" />
            <mxPoint x="762" y="168" as="targetPoint" />
          </mxGeometry>
        </mxCell>
        <mxCell id="MW2AbabD50GN0dSTxqUb-207" value="" style="endArrow=none;html=1;rounded=0;fontFamily=Verdana;fontSize=10;fontColor=default;fillColor=#e51400;strokeColor=#B20000;" parent="1" edge="1">
          <mxGeometry width="50" height="50" relative="1" as="geometry">
            <mxPoint x="744" y="248" as="sourcePoint" />
            <mxPoint x="792" y="256" as="targetPoint" />
          </mxGeometry>
        </mxCell>
        <mxCell id="MW2AbabD50GN0dSTxqUb-208" value="" style="endArrow=none;html=1;rounded=0;fontFamily=Verdana;fontSize=10;fontColor=default;entryX=0.098;entryY=0.131;entryDx=0;entryDy=0;entryPerimeter=0;fillColor=#e51400;strokeColor=#B20000;" parent="1" target="MW2AbabD50GN0dSTxqUb-96" edge="1">
          <mxGeometry width="50" height="50" relative="1" as="geometry">
            <mxPoint x="744" y="240" as="sourcePoint" />
            <mxPoint x="522" y="216" as="targetPoint" />
          </mxGeometry>
        </mxCell>
        <mxCell id="MW2AbabD50GN0dSTxqUb-209" value="" style="endArrow=none;html=1;rounded=0;fontFamily=Verdana;fontSize=10;fontColor=default;entryX=0.352;entryY=0.447;entryDx=0;entryDy=0;entryPerimeter=0;fillColor=#e51400;strokeColor=#B20000;" parent="1" target="MW2AbabD50GN0dSTxqUb-96" edge="1">
          <mxGeometry width="50" height="50" relative="1" as="geometry">
            <mxPoint x="744" y="288" as="sourcePoint" />
            <mxPoint x="522" y="216" as="targetPoint" />
          </mxGeometry>
        </mxCell>
        <mxCell id="MW2AbabD50GN0dSTxqUb-210" value="" style="endArrow=none;html=1;rounded=0;fontFamily=Verdana;fontSize=10;fontColor=default;entryX=0.251;entryY=0.153;entryDx=0;entryDy=0;entryPerimeter=0;fillColor=#e51400;strokeColor=#B20000;" parent="1" target="MW2AbabD50GN0dSTxqUb-96" edge="1">
          <mxGeometry width="50" height="50" relative="1" as="geometry">
            <mxPoint x="744" y="256" as="sourcePoint" />
            <mxPoint x="522" y="216" as="targetPoint" />
          </mxGeometry>
        </mxCell>
        <mxCell id="MW2AbabD50GN0dSTxqUb-211" value="" style="endArrow=none;html=1;rounded=0;fontFamily=Verdana;fontSize=10;fontColor=default;" parent="1" edge="1">
          <mxGeometry width="50" height="50" relative="1" as="geometry">
            <mxPoint x="689" y="183" as="sourcePoint" />
            <mxPoint x="744" y="192" as="targetPoint" />
          </mxGeometry>
        </mxCell>
        <mxCell id="MW2AbabD50GN0dSTxqUb-212" value="" style="endArrow=none;html=1;rounded=0;fontFamily=Verdana;fontSize=10;fontColor=default;" parent="1" edge="1">
          <mxGeometry width="50" height="50" relative="1" as="geometry">
            <mxPoint x="687" y="311" as="sourcePoint" />
            <mxPoint x="744" y="304" as="targetPoint" />
          </mxGeometry>
        </mxCell>
        <mxCell id="MW2AbabD50GN0dSTxqUb-213" value="" style="endArrow=none;html=1;rounded=0;fontFamily=Verdana;fontSize=10;fontColor=default;" parent="1" edge="1">
          <mxGeometry width="50" height="50" relative="1" as="geometry">
            <mxPoint x="688" y="255" as="sourcePoint" />
            <mxPoint x="743" y="248.04" as="targetPoint" />
          </mxGeometry>
        </mxCell>
        <mxCell id="MW2AbabD50GN0dSTxqUb-214" value="" style="endArrow=none;html=1;rounded=0;fontFamily=Verdana;fontSize=10;fontColor=default;" parent="1" edge="1">
          <mxGeometry width="50" height="50" relative="1" as="geometry">
            <mxPoint x="688" y="247" as="sourcePoint" />
            <mxPoint x="744" y="255" as="targetPoint" />
          </mxGeometry>
        </mxCell>
        <mxCell id="Eqb-sIe63mqenQWi5wMs-41" value="" style="shape=table;html=1;whiteSpace=wrap;startSize=0;container=1;collapsible=0;childLayout=tableLayout;" parent="1" vertex="1">
          <mxGeometry x="365" y="574" width="398" height="154" as="geometry" />
        </mxCell>
        <mxCell id="Eqb-sIe63mqenQWi5wMs-154" style="shape=tableRow;horizontal=0;startSize=0;swimlaneHead=0;swimlaneBody=0;top=0;left=0;bottom=0;right=0;collapsible=0;dropTarget=0;fillColor=none;points=[[0,0.5],[1,0.5]];portConstraint=eastwest;" parent="Eqb-sIe63mqenQWi5wMs-41" vertex="1">
          <mxGeometry width="398" height="22" as="geometry" />
        </mxCell>
        <mxCell id="Eqb-sIe63mqenQWi5wMs-155" style="shape=partialRectangle;html=1;whiteSpace=wrap;connectable=0;fillColor=none;top=0;left=0;bottom=0;right=0;overflow=hidden;" parent="Eqb-sIe63mqenQWi5wMs-154" vertex="1">
          <mxGeometry width="100" height="22" as="geometry">
            <mxRectangle width="100" height="22" as="alternateBounds" />
          </mxGeometry>
        </mxCell>
        <mxCell id="Eqb-sIe63mqenQWi5wMs-156" style="shape=partialRectangle;html=1;whiteSpace=wrap;connectable=0;fillColor=none;top=0;left=0;bottom=0;right=0;overflow=hidden;" parent="Eqb-sIe63mqenQWi5wMs-154" vertex="1">
          <mxGeometry x="100" width="92" height="22" as="geometry">
            <mxRectangle width="92" height="22" as="alternateBounds" />
          </mxGeometry>
        </mxCell>
        <mxCell id="Eqb-sIe63mqenQWi5wMs-157" style="shape=partialRectangle;html=1;whiteSpace=wrap;connectable=0;fillColor=none;top=0;left=0;bottom=0;right=0;overflow=hidden;" parent="Eqb-sIe63mqenQWi5wMs-154" vertex="1">
          <mxGeometry x="192" width="103" height="22" as="geometry">
            <mxRectangle width="103" height="22" as="alternateBounds" />
          </mxGeometry>
        </mxCell>
        <mxCell id="Eqb-sIe63mqenQWi5wMs-158" style="shape=partialRectangle;html=1;whiteSpace=wrap;connectable=0;fillColor=none;top=0;left=0;bottom=0;right=0;overflow=hidden;" parent="Eqb-sIe63mqenQWi5wMs-154" vertex="1">
          <mxGeometry x="295" width="103" height="22" as="geometry">
            <mxRectangle width="103" height="22" as="alternateBounds" />
          </mxGeometry>
        </mxCell>
        <mxCell id="Eqb-sIe63mqenQWi5wMs-149" style="shape=tableRow;horizontal=0;startSize=0;swimlaneHead=0;swimlaneBody=0;top=0;left=0;bottom=0;right=0;collapsible=0;dropTarget=0;fillColor=none;points=[[0,0.5],[1,0.5]];portConstraint=eastwest;" parent="Eqb-sIe63mqenQWi5wMs-41" vertex="1">
          <mxGeometry y="22" width="398" height="20" as="geometry" />
        </mxCell>
        <mxCell id="Eqb-sIe63mqenQWi5wMs-150" style="shape=partialRectangle;html=1;whiteSpace=wrap;connectable=0;fillColor=none;top=0;left=0;bottom=0;right=0;overflow=hidden;" parent="Eqb-sIe63mqenQWi5wMs-149" vertex="1">
          <mxGeometry width="100" height="20" as="geometry">
            <mxRectangle width="100" height="20" as="alternateBounds" />
          </mxGeometry>
        </mxCell>
        <mxCell id="Eqb-sIe63mqenQWi5wMs-151" style="shape=partialRectangle;html=1;whiteSpace=wrap;connectable=0;fillColor=none;top=0;left=0;bottom=0;right=0;overflow=hidden;" parent="Eqb-sIe63mqenQWi5wMs-149" vertex="1">
          <mxGeometry x="100" width="92" height="20" as="geometry">
            <mxRectangle width="92" height="20" as="alternateBounds" />
          </mxGeometry>
        </mxCell>
        <mxCell id="Eqb-sIe63mqenQWi5wMs-152" style="shape=partialRectangle;html=1;whiteSpace=wrap;connectable=0;fillColor=none;top=0;left=0;bottom=0;right=0;overflow=hidden;" parent="Eqb-sIe63mqenQWi5wMs-149" vertex="1">
          <mxGeometry x="192" width="103" height="20" as="geometry">
            <mxRectangle width="103" height="20" as="alternateBounds" />
          </mxGeometry>
        </mxCell>
        <mxCell id="Eqb-sIe63mqenQWi5wMs-153" style="shape=partialRectangle;html=1;whiteSpace=wrap;connectable=0;fillColor=none;top=0;left=0;bottom=0;right=0;overflow=hidden;" parent="Eqb-sIe63mqenQWi5wMs-149" vertex="1">
          <mxGeometry x="295" width="103" height="20" as="geometry">
            <mxRectangle width="103" height="20" as="alternateBounds" />
          </mxGeometry>
        </mxCell>
        <mxCell id="Eqb-sIe63mqenQWi5wMs-144" style="shape=tableRow;horizontal=0;startSize=0;swimlaneHead=0;swimlaneBody=0;top=0;left=0;bottom=0;right=0;collapsible=0;dropTarget=0;fillColor=none;points=[[0,0.5],[1,0.5]];portConstraint=eastwest;" parent="Eqb-sIe63mqenQWi5wMs-41" vertex="1">
          <mxGeometry y="42" width="398" height="22" as="geometry" />
        </mxCell>
        <mxCell id="Eqb-sIe63mqenQWi5wMs-145" style="shape=partialRectangle;html=1;whiteSpace=wrap;connectable=0;fillColor=none;top=0;left=0;bottom=0;right=0;overflow=hidden;" parent="Eqb-sIe63mqenQWi5wMs-144" vertex="1">
          <mxGeometry width="100" height="22" as="geometry">
            <mxRectangle width="100" height="22" as="alternateBounds" />
          </mxGeometry>
        </mxCell>
        <mxCell id="Eqb-sIe63mqenQWi5wMs-146" style="shape=partialRectangle;html=1;whiteSpace=wrap;connectable=0;fillColor=none;top=0;left=0;bottom=0;right=0;overflow=hidden;" parent="Eqb-sIe63mqenQWi5wMs-144" vertex="1">
          <mxGeometry x="100" width="92" height="22" as="geometry">
            <mxRectangle width="92" height="22" as="alternateBounds" />
          </mxGeometry>
        </mxCell>
        <mxCell id="Eqb-sIe63mqenQWi5wMs-147" style="shape=partialRectangle;html=1;whiteSpace=wrap;connectable=0;fillColor=none;top=0;left=0;bottom=0;right=0;overflow=hidden;" parent="Eqb-sIe63mqenQWi5wMs-144" vertex="1">
          <mxGeometry x="192" width="103" height="22" as="geometry">
            <mxRectangle width="103" height="22" as="alternateBounds" />
          </mxGeometry>
        </mxCell>
        <mxCell id="Eqb-sIe63mqenQWi5wMs-148" style="shape=partialRectangle;html=1;whiteSpace=wrap;connectable=0;fillColor=none;top=0;left=0;bottom=0;right=0;overflow=hidden;" parent="Eqb-sIe63mqenQWi5wMs-144" vertex="1">
          <mxGeometry x="295" width="103" height="22" as="geometry">
            <mxRectangle width="103" height="22" as="alternateBounds" />
          </mxGeometry>
        </mxCell>
        <mxCell id="Eqb-sIe63mqenQWi5wMs-42" value="" style="shape=tableRow;horizontal=0;startSize=0;swimlaneHead=0;swimlaneBody=0;top=0;left=0;bottom=0;right=0;collapsible=0;dropTarget=0;fillColor=none;points=[[0,0.5],[1,0.5]];portConstraint=eastwest;" parent="Eqb-sIe63mqenQWi5wMs-41" vertex="1">
          <mxGeometry y="64" width="398" height="22" as="geometry" />
        </mxCell>
        <mxCell id="Eqb-sIe63mqenQWi5wMs-54" style="shape=partialRectangle;html=1;whiteSpace=wrap;connectable=0;fillColor=none;top=0;left=0;bottom=0;right=0;overflow=hidden;" parent="Eqb-sIe63mqenQWi5wMs-42" vertex="1">
          <mxGeometry width="100" height="22" as="geometry">
            <mxRectangle width="100" height="22" as="alternateBounds" />
          </mxGeometry>
        </mxCell>
        <mxCell id="Eqb-sIe63mqenQWi5wMs-43" value="" style="shape=partialRectangle;html=1;whiteSpace=wrap;connectable=0;fillColor=none;top=0;left=0;bottom=0;right=0;overflow=hidden;" parent="Eqb-sIe63mqenQWi5wMs-42" vertex="1">
          <mxGeometry x="100" width="92" height="22" as="geometry">
            <mxRectangle width="92" height="22" as="alternateBounds" />
          </mxGeometry>
        </mxCell>
        <mxCell id="Eqb-sIe63mqenQWi5wMs-44" value="" style="shape=partialRectangle;html=1;whiteSpace=wrap;connectable=0;fillColor=none;top=0;left=0;bottom=0;right=0;overflow=hidden;" parent="Eqb-sIe63mqenQWi5wMs-42" vertex="1">
          <mxGeometry x="192" width="103" height="22" as="geometry">
            <mxRectangle width="103" height="22" as="alternateBounds" />
          </mxGeometry>
        </mxCell>
        <mxCell id="Eqb-sIe63mqenQWi5wMs-140" style="shape=partialRectangle;html=1;whiteSpace=wrap;connectable=0;fillColor=none;top=0;left=0;bottom=0;right=0;overflow=hidden;" parent="Eqb-sIe63mqenQWi5wMs-42" vertex="1">
          <mxGeometry x="295" width="103" height="22" as="geometry">
            <mxRectangle width="103" height="22" as="alternateBounds" />
          </mxGeometry>
        </mxCell>
        <mxCell id="Eqb-sIe63mqenQWi5wMs-57" style="shape=tableRow;horizontal=0;startSize=0;swimlaneHead=0;swimlaneBody=0;top=0;left=0;bottom=0;right=0;collapsible=0;dropTarget=0;fillColor=none;points=[[0,0.5],[1,0.5]];portConstraint=eastwest;" parent="Eqb-sIe63mqenQWi5wMs-41" vertex="1">
          <mxGeometry y="86" width="398" height="22" as="geometry" />
        </mxCell>
        <mxCell id="Eqb-sIe63mqenQWi5wMs-58" style="shape=partialRectangle;html=1;whiteSpace=wrap;connectable=0;fillColor=none;top=0;left=0;bottom=0;right=0;overflow=hidden;" parent="Eqb-sIe63mqenQWi5wMs-57" vertex="1">
          <mxGeometry width="100" height="22" as="geometry">
            <mxRectangle width="100" height="22" as="alternateBounds" />
          </mxGeometry>
        </mxCell>
        <mxCell id="Eqb-sIe63mqenQWi5wMs-59" style="shape=partialRectangle;html=1;whiteSpace=wrap;connectable=0;fillColor=none;top=0;left=0;bottom=0;right=0;overflow=hidden;" parent="Eqb-sIe63mqenQWi5wMs-57" vertex="1">
          <mxGeometry x="100" width="92" height="22" as="geometry">
            <mxRectangle width="92" height="22" as="alternateBounds" />
          </mxGeometry>
        </mxCell>
        <mxCell id="Eqb-sIe63mqenQWi5wMs-60" style="shape=partialRectangle;html=1;whiteSpace=wrap;connectable=0;fillColor=none;top=0;left=0;bottom=0;right=0;overflow=hidden;" parent="Eqb-sIe63mqenQWi5wMs-57" vertex="1">
          <mxGeometry x="192" width="103" height="22" as="geometry">
            <mxRectangle width="103" height="22" as="alternateBounds" />
          </mxGeometry>
        </mxCell>
        <mxCell id="Eqb-sIe63mqenQWi5wMs-141" style="shape=partialRectangle;html=1;whiteSpace=wrap;connectable=0;fillColor=none;top=0;left=0;bottom=0;right=0;overflow=hidden;" parent="Eqb-sIe63mqenQWi5wMs-57" vertex="1">
          <mxGeometry x="295" width="103" height="22" as="geometry">
            <mxRectangle width="103" height="22" as="alternateBounds" />
          </mxGeometry>
        </mxCell>
        <mxCell id="Eqb-sIe63mqenQWi5wMs-62" style="shape=tableRow;horizontal=0;startSize=0;swimlaneHead=0;swimlaneBody=0;top=0;left=0;bottom=0;right=0;collapsible=0;dropTarget=0;fillColor=none;points=[[0,0.5],[1,0.5]];portConstraint=eastwest;" parent="Eqb-sIe63mqenQWi5wMs-41" vertex="1">
          <mxGeometry y="108" width="398" height="21" as="geometry" />
        </mxCell>
        <mxCell id="Eqb-sIe63mqenQWi5wMs-63" style="shape=partialRectangle;html=1;whiteSpace=wrap;connectable=0;fillColor=none;top=0;left=0;bottom=0;right=0;overflow=hidden;" parent="Eqb-sIe63mqenQWi5wMs-62" vertex="1">
          <mxGeometry width="100" height="21" as="geometry">
            <mxRectangle width="100" height="21" as="alternateBounds" />
          </mxGeometry>
        </mxCell>
        <mxCell id="Eqb-sIe63mqenQWi5wMs-64" style="shape=partialRectangle;html=1;whiteSpace=wrap;connectable=0;fillColor=none;top=0;left=0;bottom=0;right=0;overflow=hidden;" parent="Eqb-sIe63mqenQWi5wMs-62" vertex="1">
          <mxGeometry x="100" width="92" height="21" as="geometry">
            <mxRectangle width="92" height="21" as="alternateBounds" />
          </mxGeometry>
        </mxCell>
        <mxCell id="Eqb-sIe63mqenQWi5wMs-65" style="shape=partialRectangle;html=1;whiteSpace=wrap;connectable=0;fillColor=none;top=0;left=0;bottom=0;right=0;overflow=hidden;" parent="Eqb-sIe63mqenQWi5wMs-62" vertex="1">
          <mxGeometry x="192" width="103" height="21" as="geometry">
            <mxRectangle width="103" height="21" as="alternateBounds" />
          </mxGeometry>
        </mxCell>
        <mxCell id="Eqb-sIe63mqenQWi5wMs-142" style="shape=partialRectangle;html=1;whiteSpace=wrap;connectable=0;fillColor=none;top=0;left=0;bottom=0;right=0;overflow=hidden;" parent="Eqb-sIe63mqenQWi5wMs-62" vertex="1">
          <mxGeometry x="295" width="103" height="21" as="geometry">
            <mxRectangle width="103" height="21" as="alternateBounds" />
          </mxGeometry>
        </mxCell>
        <mxCell id="Eqb-sIe63mqenQWi5wMs-67" style="shape=tableRow;horizontal=0;startSize=0;swimlaneHead=0;swimlaneBody=0;top=0;left=0;bottom=0;right=0;collapsible=0;dropTarget=0;fillColor=none;points=[[0,0.5],[1,0.5]];portConstraint=eastwest;" parent="Eqb-sIe63mqenQWi5wMs-41" vertex="1">
          <mxGeometry y="129" width="398" height="25" as="geometry" />
        </mxCell>
        <mxCell id="Eqb-sIe63mqenQWi5wMs-68" style="shape=partialRectangle;html=1;whiteSpace=wrap;connectable=0;fillColor=none;top=0;left=0;bottom=0;right=0;overflow=hidden;" parent="Eqb-sIe63mqenQWi5wMs-67" vertex="1">
          <mxGeometry width="100" height="25" as="geometry">
            <mxRectangle width="100" height="25" as="alternateBounds" />
          </mxGeometry>
        </mxCell>
        <mxCell id="Eqb-sIe63mqenQWi5wMs-69" style="shape=partialRectangle;html=1;whiteSpace=wrap;connectable=0;fillColor=none;top=0;left=0;bottom=0;right=0;overflow=hidden;" parent="Eqb-sIe63mqenQWi5wMs-67" vertex="1">
          <mxGeometry x="100" width="92" height="25" as="geometry">
            <mxRectangle width="92" height="25" as="alternateBounds" />
          </mxGeometry>
        </mxCell>
        <mxCell id="Eqb-sIe63mqenQWi5wMs-70" style="shape=partialRectangle;html=1;whiteSpace=wrap;connectable=0;fillColor=none;top=0;left=0;bottom=0;right=0;overflow=hidden;" parent="Eqb-sIe63mqenQWi5wMs-67" vertex="1">
          <mxGeometry x="192" width="103" height="25" as="geometry">
            <mxRectangle width="103" height="25" as="alternateBounds" />
          </mxGeometry>
        </mxCell>
        <mxCell id="Eqb-sIe63mqenQWi5wMs-143" style="shape=partialRectangle;html=1;whiteSpace=wrap;connectable=0;fillColor=none;top=0;left=0;bottom=0;right=0;overflow=hidden;" parent="Eqb-sIe63mqenQWi5wMs-67" vertex="1">
          <mxGeometry x="295" width="103" height="25" as="geometry">
            <mxRectangle width="103" height="25" as="alternateBounds" />
          </mxGeometry>
        </mxCell>
        <mxCell id="Eqb-sIe63mqenQWi5wMs-86" value="1.00&lt;br&gt;" style="text;html=1;align=center;verticalAlign=middle;resizable=0;points=[];autosize=1;strokeColor=none;fillColor=none;fontSize=12;fontFamily=Helvetica;fontColor=default;" parent="1" vertex="1">
          <mxGeometry x="332" y="565" width="32" height="24" as="geometry" />
        </mxCell>
        <mxCell id="Eqb-sIe63mqenQWi5wMs-87" value="0.97" style="text;html=1;align=center;verticalAlign=middle;resizable=0;points=[];autosize=1;strokeColor=none;fillColor=none;fontSize=12;fontFamily=Helvetica;fontColor=default;" parent="1" vertex="1">
          <mxGeometry x="334" y="630" width="33" height="18" as="geometry" />
        </mxCell>
        <mxCell id="Eqb-sIe63mqenQWi5wMs-99" value="0.96" style="text;html=1;align=center;verticalAlign=middle;resizable=0;points=[];autosize=1;strokeColor=none;fillColor=none;fontSize=12;fontFamily=Helvetica;fontColor=default;" parent="1" vertex="1">
          <mxGeometry x="333.5" y="648" width="32" height="24" as="geometry" />
        </mxCell>
        <mxCell id="Eqb-sIe63mqenQWi5wMs-100" value="0.95" style="text;html=1;align=center;verticalAlign=middle;resizable=0;points=[];autosize=1;strokeColor=none;fillColor=none;fontSize=12;fontFamily=Helvetica;fontColor=default;" parent="1" vertex="1">
          <mxGeometry x="334" y="672" width="33" height="18" as="geometry" />
        </mxCell>
        <mxCell id="Eqb-sIe63mqenQWi5wMs-101" value="0.94" style="text;html=1;align=center;verticalAlign=middle;resizable=0;points=[];autosize=1;strokeColor=none;fillColor=none;fontSize=12;fontFamily=Helvetica;fontColor=default;" parent="1" vertex="1">
          <mxGeometry x="333.5" y="695" width="33" height="18" as="geometry" />
        </mxCell>
        <mxCell id="Eqb-sIe63mqenQWi5wMs-102" value="0.93" style="text;html=1;align=center;verticalAlign=middle;resizable=0;points=[];autosize=1;strokeColor=none;fillColor=none;fontSize=12;fontFamily=Helvetica;fontColor=default;" parent="1" vertex="1">
          <mxGeometry x="333.5" y="715" width="33" height="18" as="geometry" />
        </mxCell>
        <mxCell id="Eqb-sIe63mqenQWi5wMs-103" value="Precision" style="text;html=1;align=center;verticalAlign=middle;resizable=0;points=[];autosize=1;strokeColor=none;fillColor=none;fontSize=12;fontFamily=Helvetica;fontColor=default;" parent="1" vertex="1">
          <mxGeometry x="435" y="732.5" width="59" height="18" as="geometry" />
        </mxCell>
        <mxCell id="Eqb-sIe63mqenQWi5wMs-104" value="Recall" style="text;html=1;align=center;verticalAlign=middle;resizable=0;points=[];autosize=1;strokeColor=none;fillColor=none;fontSize=12;fontFamily=Helvetica;fontColor=default;" parent="1" vertex="1">
          <mxGeometry x="532" y="732.5" width="44" height="18" as="geometry" />
        </mxCell>
        <mxCell id="Eqb-sIe63mqenQWi5wMs-105" value="Accuracy" style="text;html=1;align=center;verticalAlign=middle;resizable=0;points=[];autosize=1;strokeColor=none;fillColor=none;fontSize=12;fontFamily=Helvetica;fontColor=default;" parent="1" vertex="1">
          <mxGeometry x="630" y="733" width="60" height="18" as="geometry" />
        </mxCell>
        <mxCell id="Eqb-sIe63mqenQWi5wMs-106" value="" style="triangle;whiteSpace=wrap;html=1;fontFamily=Helvetica;fontSize=12;fontColor=#ffffff;startSize=0;strokeColor=#A50040;fillColor=none;direction=north;" parent="1" vertex="1">
          <mxGeometry x="651.5" y="645.5" width="17" height="11" as="geometry" />
        </mxCell>
        <mxCell id="Eqb-sIe63mqenQWi5wMs-110" value="" style="triangle;whiteSpace=wrap;html=1;fontFamily=Helvetica;fontSize=12;fontColor=#ffffff;startSize=0;strokeColor=#A50040;fillColor=none;direction=north;" parent="1" vertex="1">
          <mxGeometry x="457.57000000000005" y="585" width="15.53" height="10" as="geometry" />
        </mxCell>
        <mxCell id="Eqb-sIe63mqenQWi5wMs-111" value="" style="triangle;whiteSpace=wrap;html=1;fontFamily=Helvetica;fontSize=12;fontColor=#ffffff;startSize=0;strokeColor=#A50040;fillColor=none;direction=north;" parent="1" vertex="1">
          <mxGeometry x="548.25" y="712" width="15.25" height="11" as="geometry" />
        </mxCell>
        <mxCell id="Eqb-sIe63mqenQWi5wMs-112" value="" style="dashed=0;aspect=fixed;verticalLabelPosition=bottom;verticalAlign=top;align=center;shape=mxgraph.gmdl.star;strokeColor=none;fillColor=#737373;shadow=0;sketch=0;fontFamily=Helvetica;fontSize=12;fontColor=default;startSize=0;html=1;" parent="1" vertex="1">
          <mxGeometry x="653" y="645.5" width="14" height="14" as="geometry" />
        </mxCell>
        <mxCell id="Eqb-sIe63mqenQWi5wMs-113" value="" style="dashed=0;aspect=fixed;verticalLabelPosition=bottom;verticalAlign=top;align=center;shape=mxgraph.gmdl.star;strokeColor=none;fillColor=#737373;shadow=0;sketch=0;fontFamily=Helvetica;fontSize=12;fontColor=default;startSize=0;html=1;" parent="1" vertex="1">
          <mxGeometry x="457.57" y="588" width="14" height="14" as="geometry" />
        </mxCell>
        <mxCell id="Eqb-sIe63mqenQWi5wMs-116" value="" style="dashed=0;aspect=fixed;verticalLabelPosition=bottom;verticalAlign=top;align=center;shape=mxgraph.gmdl.star;strokeColor=none;fillColor=#737373;shadow=0;sketch=0;fontFamily=Helvetica;fontSize=12;fontColor=default;startSize=0;html=1;" parent="1" vertex="1">
          <mxGeometry x="549.5" y="709" width="14" height="14" as="geometry" />
        </mxCell>
        <mxCell id="Eqb-sIe63mqenQWi5wMs-118" value="" style="ellipse;whiteSpace=wrap;html=1;aspect=fixed;fontFamily=Helvetica;fontSize=12;fontColor=#ffffff;startSize=0;strokeColor=#A50040;fillColor=#d80073;" parent="1" vertex="1">
          <mxGeometry x="460.56999999999994" y="600" width="11" height="11" as="geometry" />
        </mxCell>
        <mxCell id="Eqb-sIe63mqenQWi5wMs-121" value="" style="ellipse;whiteSpace=wrap;html=1;aspect=fixed;fontFamily=Helvetica;fontSize=12;fontColor=#ffffff;startSize=0;strokeColor=#A50040;fillColor=#d80073;" parent="1" vertex="1">
          <mxGeometry x="550.9999999999999" y="708" width="11" height="11" as="geometry" />
        </mxCell>
        <mxCell id="Eqb-sIe63mqenQWi5wMs-122" value="" style="ellipse;whiteSpace=wrap;html=1;aspect=fixed;fontFamily=Helvetica;fontSize=12;fontColor=#ffffff;startSize=0;strokeColor=#A50040;fillColor=#d80073;" parent="1" vertex="1">
          <mxGeometry x="654.4999999999999" y="663" width="11" height="11" as="geometry" />
        </mxCell>
        <mxCell id="Eqb-sIe63mqenQWi5wMs-124" value="" style="ellipse;whiteSpace=wrap;html=1;aspect=fixed;fontFamily=Helvetica;fontSize=12;fontColor=#ffffff;startSize=0;strokeColor=#A50040;fillColor=#d80073;" parent="1" vertex="1">
          <mxGeometry x="798.9999999999999" y="715" width="11" height="11" as="geometry" />
        </mxCell>
        <mxCell id="Eqb-sIe63mqenQWi5wMs-125" value="" style="triangle;whiteSpace=wrap;html=1;fontFamily=Helvetica;fontSize=12;fontColor=#ffffff;startSize=0;strokeColor=#A50040;fillColor=none;direction=north;" parent="1" vertex="1">
          <mxGeometry x="796" y="695" width="17" height="11" as="geometry" />
        </mxCell>
        <mxCell id="Eqb-sIe63mqenQWi5wMs-126" value="" style="dashed=0;aspect=fixed;verticalLabelPosition=bottom;verticalAlign=top;align=center;shape=mxgraph.gmdl.star;strokeColor=none;fillColor=#737373;shadow=0;sketch=0;fontFamily=Helvetica;fontSize=12;fontColor=default;startSize=0;html=1;" parent="1" vertex="1">
          <mxGeometry x="795.5" y="676" width="14" height="14" as="geometry" />
        </mxCell>
        <mxCell id="Eqb-sIe63mqenQWi5wMs-129" value="&lt;font style=&quot;font-size: 8px&quot;&gt;VNA and head movement noise&lt;/font&gt;" style="text;html=1;align=center;verticalAlign=middle;resizable=0;points=[];autosize=1;strokeColor=none;fillColor=none;fontSize=12;fontFamily=Helvetica;fontColor=#000000;" parent="1" vertex="1">
          <mxGeometry x="812.5" y="673" width="123" height="20" as="geometry" />
        </mxCell>
        <mxCell id="Eqb-sIe63mqenQWi5wMs-132" value="&lt;font style=&quot;font-size: 8px&quot;&gt;Antenna Dissimilarity Noise&lt;/font&gt;" style="text;html=1;align=center;verticalAlign=middle;resizable=0;points=[];autosize=1;strokeColor=none;fillColor=none;fontSize=7;fontFamily=Helvetica;fontColor=#000000;" parent="1" vertex="1">
          <mxGeometry x="812.5" y="697" width="107" height="12" as="geometry" />
        </mxCell>
        <mxCell id="Eqb-sIe63mqenQWi5wMs-133" value="&lt;font style=&quot;font-size: 8px&quot;&gt;Combined Noise&lt;/font&gt;" style="text;html=1;align=center;verticalAlign=middle;resizable=0;points=[];autosize=1;strokeColor=none;fillColor=none;fontSize=7;fontFamily=Helvetica;fontColor=#000000;" parent="1" vertex="1">
          <mxGeometry x="812.5" y="716" width="69" height="12" as="geometry" />
        </mxCell>
        <mxCell id="Eqb-sIe63mqenQWi5wMs-159" value="&lt;font style=&quot;font-size: 12px&quot;&gt;0.98&lt;/font&gt;" style="text;html=1;align=center;verticalAlign=middle;resizable=0;points=[];autosize=1;strokeColor=none;fillColor=none;fontSize=7;fontFamily=Helvetica;fontColor=#000000;" parent="1" vertex="1">
          <mxGeometry x="333.5" y="611" width="33" height="14" as="geometry" />
        </mxCell>
        <mxCell id="Eqb-sIe63mqenQWi5wMs-160" value="0.99" style="text;html=1;align=center;verticalAlign=middle;resizable=0;points=[];autosize=1;strokeColor=none;fillColor=none;fontSize=12;fontFamily=Helvetica;fontColor=#000000;" parent="1" vertex="1">
          <mxGeometry x="333.5" y="588" width="33" height="18" as="geometry" />
        </mxCell>
        <mxCell id="B6GP17bmKk5AsorG1zAP-1" value="" style="verticalLabelPosition=bottom;verticalAlign=top;html=1;shape=mxgraph.basic.x;fillColor=#f8cecc;strokeColor=#b85450;" parent="1" vertex="1">
          <mxGeometry x="205.04" y="625" width="7.96" height="10" as="geometry" />
        </mxCell>
        <mxCell id="B6GP17bmKk5AsorG1zAP-6" value="" style="verticalLabelPosition=bottom;verticalAlign=top;html=1;shape=mxgraph.basic.x;fillColor=#f8cecc;strokeColor=#b85450;" parent="1" vertex="1">
          <mxGeometry x="552.52" y="669.5" width="7.96" height="10" as="geometry" />
        </mxCell>
        <mxCell id="B6GP17bmKk5AsorG1zAP-7" value="" style="verticalLabelPosition=bottom;verticalAlign=top;html=1;shape=mxgraph.basic.x;fillColor=#f8cecc;strokeColor=#b85450;" parent="1" vertex="1">
          <mxGeometry x="656.02" y="642" width="7.96" height="10" as="geometry" />
        </mxCell>
        <mxCell id="B6GP17bmKk5AsorG1zAP-8" value="" style="verticalLabelPosition=bottom;verticalAlign=top;html=1;shape=mxgraph.basic.x;fillColor=#f8cecc;strokeColor=#b85450;" parent="1" vertex="1">
          <mxGeometry x="798.9999999999999" y="659.5" width="7.96" height="10" as="geometry" />
        </mxCell>
        <mxCell id="B6GP17bmKk5AsorG1zAP-11" value="" style="verticalLabelPosition=bottom;verticalAlign=top;html=1;shape=mxgraph.basic.x;fillColor=#f8cecc;strokeColor=#b85450;" parent="1" vertex="1">
          <mxGeometry x="461.3599999999999" y="600.5" width="7.96" height="10" as="geometry" />
        </mxCell>
        <mxCell id="B6GP17bmKk5AsorG1zAP-12" value="&lt;font style=&quot;font-size: 8px;&quot;&gt;Ideal Scenario (Without noise)&lt;/font&gt;" style="text;html=1;align=center;verticalAlign=middle;resizable=0;points=[];autosize=1;strokeColor=none;fillColor=none;" parent="1" vertex="1">
          <mxGeometry x="812.5" y="654.5" width="117" height="20" as="geometry" />
        </mxCell>
        <mxCell id="B6GP17bmKk5AsorG1zAP-13" value="&lt;b&gt;&lt;font style=&quot;font-size: 10px;&quot;&gt;C1&lt;/font&gt;&lt;/b&gt;" style="text;html=1;align=center;verticalAlign=middle;resizable=0;points=[];autosize=1;strokeColor=none;fillColor=none;fontSize=8;" parent="1" vertex="1">
          <mxGeometry x="105" y="302.07" width="23" height="15" as="geometry" />
        </mxCell>
        <mxCell id="B6GP17bmKk5AsorG1zAP-14" value="&lt;b&gt;S2&lt;/b&gt;" style="text;html=1;align=center;verticalAlign=middle;resizable=0;points=[];autosize=1;strokeColor=none;fillColor=none;fontSize=10;" parent="1" vertex="1">
          <mxGeometry x="284" y="302.07" width="22" height="16" as="geometry" />
        </mxCell>
        <mxCell id="B6GP17bmKk5AsorG1zAP-15" value="&lt;b&gt;C3&lt;/b&gt;" style="text;html=1;align=center;verticalAlign=middle;resizable=0;points=[];autosize=1;strokeColor=none;fillColor=none;fontSize=10;" parent="1" vertex="1">
          <mxGeometry x="414.07" y="301.07" width="23" height="16" as="geometry" />
        </mxCell>
        <mxCell id="B6GP17bmKk5AsorG1zAP-16" value="&lt;b&gt;S4&lt;/b&gt;" style="text;html=1;align=center;verticalAlign=middle;resizable=0;points=[];autosize=1;strokeColor=none;fillColor=none;fontSize=10;" parent="1" vertex="1">
          <mxGeometry x="512.04" y="301.07" width="22" height="16" as="geometry" />
        </mxCell>
        <mxCell id="B6GP17bmKk5AsorG1zAP-17" value="&lt;b&gt;C5&lt;/b&gt;" style="text;html=1;align=center;verticalAlign=middle;resizable=0;points=[];autosize=1;strokeColor=none;fillColor=none;fontSize=10;" parent="1" vertex="1">
          <mxGeometry x="638.5" y="294.03" width="23" height="16" as="geometry" />
        </mxCell>
        <mxCell id="MW2AbabD50GN0dSTxqUb-45" value="" style="whiteSpace=wrap;html=1;rounded=0;fontFamily=Helvetica;fontSize=10;strokeColor=#3700CC;fillColor=#6a00ff;fontColor=#ffffff;opacity=70;" parent="1" vertex="1">
          <mxGeometry x="356" y="232" width="62.07" height="40" as="geometry" />
        </mxCell>
        <mxCell id="MW2AbabD50GN0dSTxqUb-38" value="" style="whiteSpace=wrap;html=1;rounded=0;fontFamily=Helvetica;fontSize=10;strokeColor=#3700CC;fillColor=#6a00ff;fontColor=#ffffff;opacity=70;" parent="1" vertex="1">
          <mxGeometry x="195" y="224.03000000000003" width="83" height="55" as="geometry" />
        </mxCell>
        <mxCell id="MW2AbabD50GN0dSTxqUb-105" value="" style="rounded=0;whiteSpace=wrap;html=1;labelBackgroundColor=none;sketch=0;fontFamily=Helvetica;fontSize=10;fontColor=#000000;strokeColor=#B09500;fillColor=#e3c800;" parent="1" vertex="1">
          <mxGeometry x="230.07" y="231.44" width="17.93" height="16.56" as="geometry" />
        </mxCell>
        <mxCell id="MW2AbabD50GN0dSTxqUb-108" value="" style="endArrow=none;html=1;rounded=0;fontFamily=Helvetica;fontSize=10;fontColor=default;exitX=1;exitY=0;exitDx=0;exitDy=0;startArrow=none;" parent="1" source="MW2AbabD50GN0dSTxqUb-105" edge="1">
          <mxGeometry width="50" height="50" relative="1" as="geometry">
            <mxPoint x="248" y="232" as="sourcePoint" />
            <mxPoint x="368" y="248" as="targetPoint" />
          </mxGeometry>
        </mxCell>
        <mxCell id="MW2AbabD50GN0dSTxqUb-106" value="" style="endArrow=none;html=1;rounded=0;fontFamily=Helvetica;fontSize=10;fontColor=default;entryX=0;entryY=0;entryDx=0;entryDy=0;" parent="1" target="MW2AbabD50GN0dSTxqUb-105" edge="1">
          <mxGeometry width="50" height="50" relative="1" as="geometry">
            <mxPoint x="368" y="248" as="sourcePoint" />
            <mxPoint x="450" y="192" as="targetPoint" />
          </mxGeometry>
        </mxCell>
        <mxCell id="MW2AbabD50GN0dSTxqUb-107" value="" style="endArrow=none;html=1;rounded=0;fontFamily=Helvetica;fontSize=10;fontColor=default;exitX=0;exitY=1;exitDx=0;exitDy=0;" parent="1" source="MW2AbabD50GN0dSTxqUb-105" edge="1">
          <mxGeometry width="50" height="50" relative="1" as="geometry">
            <mxPoint x="400" y="138" as="sourcePoint" />
            <mxPoint x="368" y="248" as="targetPoint" />
          </mxGeometry>
        </mxCell>
        <mxCell id="MW2AbabD50GN0dSTxqUb-109" value="" style="rounded=0;whiteSpace=wrap;html=1;labelBackgroundColor=none;sketch=0;fontFamily=Helvetica;fontSize=10;fontColor=#000000;strokeColor=#B09500;fillColor=#e3c800;" parent="1" vertex="1">
          <mxGeometry x="388.04" y="244.00000000000006" width="16" height="16" as="geometry" />
        </mxCell>
        <mxCell id="MW2AbabD50GN0dSTxqUb-110" value="" style="endArrow=none;html=1;rounded=0;fontFamily=Helvetica;fontSize=10;fontColor=default;entryX=0.261;entryY=0.581;entryDx=0;entryDy=0;entryPerimeter=0;exitX=1;exitY=1;exitDx=0;exitDy=0;" parent="1" target="MW2AbabD50GN0dSTxqUb-60" edge="1" source="MW2AbabD50GN0dSTxqUb-109">
          <mxGeometry width="50" height="50" relative="1" as="geometry">
            <mxPoint x="391.04" y="275" as="sourcePoint" />
            <mxPoint x="441.04" y="225" as="targetPoint" />
          </mxGeometry>
        </mxCell>
        <mxCell id="MW2AbabD50GN0dSTxqUb-112" value="" style="endArrow=none;html=1;rounded=0;fontFamily=Helvetica;fontSize=10;fontColor=default;exitX=0;exitY=1;exitDx=0;exitDy=0;" parent="1" source="MW2AbabD50GN0dSTxqUb-109" edge="1">
          <mxGeometry width="50" height="50" relative="1" as="geometry">
            <mxPoint x="416" y="266" as="sourcePoint" />
            <mxPoint x="512" y="248" as="targetPoint" />
          </mxGeometry>
        </mxCell>
        <mxCell id="MW2AbabD50GN0dSTxqUb-111" value="" style="endArrow=none;html=1;rounded=0;fontFamily=Helvetica;fontSize=10;fontColor=default;exitX=0;exitY=0;exitDx=0;exitDy=0;entryX=0.261;entryY=0.557;entryDx=0;entryDy=0;entryPerimeter=0;startArrow=none;" parent="1" source="MW2AbabD50GN0dSTxqUb-109" target="MW2AbabD50GN0dSTxqUb-60" edge="1">
          <mxGeometry width="50" height="50" relative="1" as="geometry">
            <mxPoint x="416" y="266" as="sourcePoint" />
            <mxPoint x="466" y="216" as="targetPoint" />
          </mxGeometry>
        </mxCell>
        <mxCell id="MW2AbabD50GN0dSTxqUb-39" value="" style="endArrow=none;html=1;rounded=0;fontFamily=Helvetica;fontSize=10;fontColor=default;entryX=0.018;entryY=0.012;entryDx=0;entryDy=0;entryPerimeter=0;" parent="1" target="MW2AbabD50GN0dSTxqUb-24" edge="1">
          <mxGeometry width="50" height="50" relative="1" as="geometry">
            <mxPoint x="56" y="264" as="sourcePoint" />
            <mxPoint x="64" y="248" as="targetPoint" />
            <Array as="points">
              <mxPoint x="216" y="264" />
            </Array>
          </mxGeometry>
        </mxCell>
      </root>
    </mxGraphModel>
  </diagram>
</mxfile>
